<svg id="svg" version="1.1" width="400" height="400" viewBox="0 0 400 400" xmlns="http://www.w3.org/2000/svg" xmlns:xlink="http://www.w3.org/1999/xlink" ><g id="svgg"><path id="path0" d="M145.600 95.191 C 145.073 95.524,144.976 101.867,144.800 147.000 C 144.650 185.669,144.484 198.501,144.132 198.719 C 143.874 198.878,143.536 199.514,143.381 200.133 C 143.207 200.828,142.700 201.410,142.057 201.654 C 141.485 201.872,140.884 202.264,140.723 202.525 C 140.500 202.886,128.064 203.048,88.915 203.200 C 60.582 203.310,37.175 203.546,36.900 203.724 C 35.926 204.354,36.197 313.063,37.174 313.586 C 38.369 314.225,362.880 314.160,363.520 313.520 C 364.265 312.775,364.212 204.274,363.466 203.655 C 363.083 203.337,348.427 203.182,311.652 203.106 C 276.187 203.033,260.283 202.870,260.085 202.577 C 259.928 202.345,259.227 201.923,258.527 201.640 C 257.475 201.215,257.168 200.786,256.752 199.163 C 256.475 198.083,256.103 197.200,255.924 197.200 C 255.746 197.200,255.600 174.508,255.600 146.774 C 255.600 112.779,255.465 96.095,255.186 95.574 C 254.722 94.706,146.963 94.330,145.600 95.191 M249.776 98.900 C 250.058 99.285,250.464 99.600,250.680 99.600 C 251.124 99.600,252.000 101.339,252.000 102.219 C 252.000 102.538,252.180 102.800,252.400 102.800 C 252.664 102.800,252.800 118.933,252.800 150.400 C 252.800 181.867,252.664 198.000,252.400 198.000 C 252.180 198.000,252.000 198.234,252.000 198.520 C 252.000 200.129,250.129 202.000,248.520 202.000 C 248.234 202.000,248.000 202.180,248.000 202.400 C 248.000 202.664,231.867 202.800,200.400 202.800 C 168.933 202.800,152.800 202.664,152.800 202.400 C 152.800 202.180,152.538 202.000,152.219 202.000 C 151.339 202.000,149.600 201.124,149.600 200.680 C 149.600 200.464,149.285 200.058,148.900 199.776 C 148.189 199.257,147.530 107.634,148.203 102.919 C 148.478 100.992,150.167 98.922,151.890 98.399 C 154.371 97.646,249.214 98.131,249.776 98.900 M195.216 120.075 C 194.003 121.377,193.992 129.192,195.200 130.400 C 196.543 131.743,204.316 131.591,205.528 130.197 C 206.883 128.639,206.831 121.707,205.454 120.221 C 204.098 118.757,196.544 118.650,195.216 120.075 M170.075 145.216 C 168.650 146.544,168.757 154.098,170.221 155.454 L 171.241 156.400 200.218 156.400 L 229.194 156.400 230.197 155.528 C 231.591 154.316,231.743 146.543,230.400 145.200 C 229.130 143.930,171.439 143.945,170.075 145.216 M195.216 170.075 C 194.003 171.377,193.992 179.192,195.200 180.400 C 196.543 181.743,204.316 181.591,205.528 180.197 C 206.883 178.639,206.831 171.707,205.454 170.221 C 204.098 168.757,196.544 168.650,195.216 170.075 M141.376 207.300 C 141.658 207.685,142.029 208.000,142.200 208.000 C 142.694 208.000,143.573 209.331,143.587 210.100 C 143.594 210.485,143.780 210.800,144.000 210.800 C 144.264 210.800,144.400 227.000,144.400 258.600 C 144.400 290.200,144.264 306.400,144.000 306.400 C 143.780 306.400,143.594 306.715,143.587 307.100 C 143.573 307.869,142.694 309.200,142.200 309.200 C 142.029 309.200,141.658 309.515,141.376 309.900 C 140.895 310.559,138.070 310.607,93.532 310.718 C 40.880 310.850,43.424 310.939,41.311 308.887 L 39.800 307.420 39.800 258.610 L 39.800 209.800 41.128 208.458 C 41.858 207.720,42.938 206.969,43.528 206.789 C 45.976 206.043,140.819 206.538,141.376 207.300 M249.776 207.300 C 250.058 207.685,250.429 208.000,250.600 208.000 C 251.094 208.000,251.973 209.331,251.987 210.100 C 251.994 210.485,252.180 210.800,252.400 210.800 C 252.664 210.800,252.800 227.000,252.800 258.600 C 252.800 290.200,252.664 306.400,252.400 306.400 C 252.180 306.400,251.994 306.715,251.987 307.100 C 251.973 307.869,251.094 309.200,250.600 309.200 C 250.429 309.200,250.058 309.515,249.776 309.900 C 249.295 310.559,246.470 310.607,201.932 310.718 C 149.511 310.849,151.878 310.929,149.728 308.960 L 148.200 307.560 148.200 258.619 L 148.200 209.678 149.545 208.392 C 150.285 207.685,151.365 206.962,151.945 206.784 C 154.379 206.041,249.221 206.541,249.776 207.300 M359.040 208.160 L 360.600 209.720 360.600 258.600 L 360.600 307.480 359.040 309.040 L 357.480 310.600 308.600 310.600 L 259.720 310.600 258.160 309.040 L 256.600 307.480 256.600 258.600 L 256.600 209.720 258.014 208.306 C 259.973 206.347,256.084 206.481,309.240 206.543 L 357.480 206.600 359.040 208.160 M86.841 228.449 C 86.104 229.239,86.041 229.986,85.925 239.277 C 85.812 248.289,85.732 249.295,85.100 249.648 C 84.715 249.864,84.399 250.256,84.397 250.520 C 84.394 251.020,82.622 252.000,81.720 252.000 C 81.434 252.000,81.200 252.180,81.200 252.400 C 81.200 252.655,77.824 252.805,71.900 252.813 C 60.187 252.830,60.800 252.510,60.800 258.600 C 60.800 264.690,60.187 264.370,71.900 264.387 C 77.824 264.395,81.200 264.545,81.200 264.800 C 81.200 265.020,81.434 265.200,81.720 265.200 C 82.622 265.200,84.394 266.180,84.397 266.680 C 84.399 266.944,84.715 267.336,85.100 267.552 C 85.732 267.905,85.812 268.911,85.925 277.923 C 86.080 290.329,85.708 289.603,91.916 289.593 C 98.253 289.583,97.916 290.226,98.074 277.838 C 98.187 268.956,98.272 267.882,98.900 267.423 C 99.285 267.142,99.600 266.736,99.600 266.520 C 99.600 266.076,101.339 265.200,102.219 265.200 C 102.538 265.200,102.800 265.020,102.800 264.800 C 102.800 264.545,106.104 264.400,111.911 264.400 C 123.498 264.400,122.800 264.772,122.800 258.600 C 122.800 252.428,123.498 252.800,111.911 252.800 C 106.104 252.800,102.800 252.655,102.800 252.400 C 102.800 252.180,102.538 252.000,102.219 252.000 C 101.339 252.000,99.600 251.124,99.600 250.680 C 99.600 250.464,99.285 250.058,98.900 249.777 C 98.272 249.318,98.187 248.244,98.074 239.362 C 97.916 226.974,98.253 227.617,91.916 227.607 C 88.059 227.601,87.552 227.685,86.841 228.449 M170.100 228.563 C 169.285 229.424,169.201 229.902,169.207 233.656 C 169.215 238.399,169.672 239.233,172.557 239.769 C 173.414 239.928,174.353 240.270,174.644 240.529 C 176.804 242.454,177.109 242.905,177.432 244.655 C 177.794 246.615,179.104 247.846,181.207 248.201 C 182.114 248.354,182.952 248.732,183.071 249.040 C 183.189 249.348,183.536 249.600,183.843 249.600 C 184.149 249.600,184.400 249.767,184.400 249.971 C 184.400 250.176,184.715 250.658,185.100 251.043 C 185.712 251.655,185.800 252.603,185.800 258.600 C 185.800 264.597,185.712 265.545,185.100 266.157 C 184.715 266.542,184.400 267.024,184.400 267.229 C 184.400 267.433,184.149 267.600,183.843 267.600 C 183.536 267.600,183.189 267.852,183.071 268.160 C 182.952 268.468,182.078 268.851,181.128 269.010 C 179.004 269.366,177.804 270.514,177.431 272.545 C 177.109 274.294,176.805 274.745,174.644 276.671 C 174.353 276.930,173.414 277.272,172.557 277.431 C 169.661 277.969,169.214 278.794,169.214 283.600 C 169.214 289.355,169.464 289.600,175.341 289.600 C 180.236 289.600,180.928 289.211,181.379 286.204 C 181.521 285.251,181.900 284.371,182.219 284.248 C 182.539 284.125,182.800 283.749,182.800 283.413 C 182.800 283.076,183.076 282.800,183.413 282.800 C 183.749 282.800,184.125 282.539,184.248 282.219 C 184.371 281.900,185.251 281.521,186.204 281.379 C 188.460 281.040,189.438 280.077,189.769 277.867 C 189.919 276.870,190.297 275.972,190.619 275.848 C 190.939 275.725,191.200 275.378,191.200 275.077 C 191.200 274.507,192.808 273.600,193.819 273.600 C 194.138 273.600,194.400 273.420,194.400 273.200 C 194.400 272.951,196.667 272.800,200.400 272.800 C 204.133 272.800,206.400 272.951,206.400 273.200 C 206.400 273.420,206.715 273.606,207.100 273.613 C 207.938 273.628,209.200 274.523,209.200 275.101 C 209.200 275.329,209.452 275.611,209.760 275.729 C 210.068 275.848,210.448 276.698,210.603 277.619 C 210.992 279.921,212.094 281.063,214.238 281.385 C 215.207 281.530,216.000 281.806,216.000 281.998 C 216.000 282.189,216.360 282.460,216.800 282.600 C 217.240 282.740,217.600 283.093,217.600 283.384 C 217.600 283.676,217.852 284.011,218.160 284.129 C 218.468 284.248,218.851 285.121,219.012 286.069 C 219.530 289.140,220.323 289.585,225.284 289.593 C 231.058 289.602,231.200 289.459,231.200 283.600 C 231.200 278.615,230.797 277.870,227.867 277.431 C 226.870 277.281,225.972 276.903,225.848 276.581 C 225.725 276.261,225.378 276.000,225.077 276.000 C 224.507 276.000,223.600 274.392,223.600 273.381 C 223.600 273.062,223.420 272.800,223.200 272.800 C 222.980 272.800,222.800 272.384,222.800 271.875 C 222.800 270.447,221.474 269.332,219.408 269.022 C 218.382 268.868,217.455 268.489,217.334 268.172 C 217.213 267.857,216.893 267.600,216.621 267.600 C 216.096 267.600,215.200 265.949,215.200 264.981 C 215.200 264.662,215.020 264.400,214.800 264.400 C 214.552 264.400,214.400 262.200,214.400 258.600 C 214.400 255.000,214.552 252.800,214.800 252.800 C 215.020 252.800,215.200 252.538,215.200 252.219 C 215.200 251.251,216.096 249.600,216.621 249.600 C 216.893 249.600,217.211 249.348,217.329 249.040 C 217.448 248.732,218.298 248.352,219.219 248.197 C 221.230 247.857,222.800 246.599,222.800 245.328 C 222.800 244.818,222.980 244.400,223.200 244.400 C 223.420 244.400,223.600 244.138,223.600 243.819 C 223.600 242.808,224.507 241.200,225.077 241.200 C 225.378 241.200,225.725 240.939,225.848 240.619 C 225.972 240.297,226.870 239.919,227.867 239.769 C 230.797 239.330,231.200 238.585,231.200 233.600 C 231.200 227.741,231.058 227.598,225.284 227.607 C 220.323 227.615,219.530 228.060,219.012 231.131 C 218.851 232.079,218.468 232.952,218.160 233.071 C 217.852 233.189,217.600 233.524,217.600 233.816 C 217.600 234.107,217.240 234.460,216.800 234.600 C 216.360 234.740,216.000 235.011,216.000 235.202 C 216.000 235.394,215.207 235.670,214.238 235.815 C 212.094 236.137,210.992 237.279,210.603 239.581 C 210.448 240.502,210.068 241.352,209.760 241.471 C 209.452 241.589,209.200 241.871,209.200 242.099 C 209.200 242.677,207.938 243.572,207.100 243.587 C 206.715 243.594,206.400 243.780,206.400 244.000 C 206.400 244.249,204.133 244.400,200.400 244.400 C 196.667 244.400,194.400 244.249,194.400 244.000 C 194.400 243.780,194.138 243.600,193.819 243.600 C 192.808 243.600,191.200 242.693,191.200 242.123 C 191.200 241.822,190.939 241.475,190.619 241.352 C 190.297 241.228,189.919 240.330,189.769 239.333 C 189.438 237.123,188.460 236.160,186.204 235.821 C 185.251 235.679,184.371 235.300,184.248 234.981 C 184.125 234.661,183.749 234.400,183.413 234.400 C 183.076 234.400,182.800 234.124,182.800 233.787 C 182.800 233.451,182.539 233.075,182.219 232.952 C 181.900 232.829,181.521 231.949,181.379 230.996 C 180.926 227.979,180.242 227.599,175.284 227.607 C 171.299 227.613,170.937 227.680,170.100 228.563 M278.500 253.470 C 277.054 254.478,277.124 262.796,278.586 263.754 C 280.090 264.740,337.110 264.740,338.614 263.754 C 339.565 263.131,339.600 262.950,339.600 258.600 C 339.600 254.250,339.565 254.069,338.614 253.446 C 337.135 252.477,279.891 252.499,278.500 253.470 " stroke="none" fill="#000000" fill-rule="evenodd"></path><path id="path1" d="M0.000 200.000 L 0.000 400.000 200.000 400.000 L 400.000 400.000 400.000 200.000 L 400.000 0.000 200.000 0.000 L 0.000 0.000 0.000 200.000 M255.600 90.368 C 255.600 90.571,256.146 90.856,256.814 91.003 C 257.494 91.152,258.325 91.737,258.704 92.335 C 259.077 92.921,259.566 93.528,259.791 93.685 C 260.065 93.877,260.234 110.788,260.305 145.021 L 260.409 196.071 261.569 197.231 L 262.729 198.391 313.675 198.495 C 368.337 198.608,364.731 198.473,366.729 200.471 C 368.730 202.473,368.600 198.425,368.600 258.600 C 368.600 307.809,368.527 314.707,368.000 315.339 C 367.236 316.254,366.254 317.236,365.339 318.000 C 364.348 318.826,36.802 319.126,35.930 318.301 C 35.639 318.026,34.906 317.545,34.302 317.233 C 33.693 316.919,32.989 316.072,32.721 315.333 C 32.456 314.600,32.095 314.000,31.920 314.000 C 31.744 314.000,31.600 289.070,31.600 258.600 C 31.600 228.130,31.744 203.200,31.920 203.200 C 32.095 203.200,32.456 202.600,32.721 201.867 C 32.989 201.128,33.693 200.281,34.302 199.967 C 34.906 199.655,35.638 199.175,35.929 198.900 C 36.346 198.505,47.127 198.400,87.064 198.400 L 137.672 198.400 138.836 197.301 L 140.000 196.203 140.000 145.535 C 140.000 117.667,140.135 94.807,140.300 94.733 C 140.465 94.660,140.905 93.940,141.277 93.134 C 141.756 92.098,142.371 91.517,143.377 91.154 C 144.160 90.871,144.800 90.495,144.800 90.320 C 144.800 90.144,169.730 90.000,200.200 90.000 C 233.679 90.000,255.600 90.146,255.600 90.368 " stroke="none" fill="#ffffff" fill-rule="evenodd"></path><path id="path2" d="M146.000 92.302 C 146.000 92.469,145.489 92.831,144.865 93.107 C 144.241 93.383,143.476 94.102,143.166 94.705 C 142.855 95.307,142.468 95.899,142.305 96.021 C 142.142 96.142,141.962 119.037,141.905 146.897 L 141.800 197.553 140.446 198.877 L 139.093 200.200 88.346 200.305 C 55.240 200.373,37.600 200.547,37.600 200.805 C 37.600 201.022,37.363 201.200,37.074 201.200 C 36.784 201.200,35.974 201.847,35.274 202.639 L 34.000 204.077 34.000 258.600 L 34.000 313.123 35.274 314.561 C 35.974 315.353,36.784 316.000,37.074 316.000 C 37.363 316.000,37.600 316.180,37.600 316.400 C 37.600 317.222,362.640 316.923,363.653 316.100 C 364.127 315.715,364.804 315.065,365.157 314.655 C 365.511 314.246,366.025 313.674,366.300 313.384 C 366.695 312.968,366.800 301.465,366.800 258.633 C 366.800 199.212,366.983 204.053,364.655 202.043 C 364.246 201.689,363.676 201.177,363.388 200.905 C 362.980 200.517,351.801 200.386,312.102 200.305 L 261.338 200.200 259.969 198.831 L 258.600 197.462 258.400 146.415 L 258.200 95.368 256.922 94.184 C 256.219 93.533,255.372 92.775,255.039 92.500 C 254.355 91.935,146.000 91.739,146.000 92.302 M255.186 95.574 C 255.465 96.095,255.600 112.779,255.600 146.774 C 255.600 174.508,255.746 197.200,255.924 197.200 C 256.103 197.200,256.475 198.083,256.752 199.163 C 257.168 200.786,257.475 201.215,258.527 201.640 C 259.227 201.923,259.928 202.345,260.085 202.577 C 260.283 202.870,276.187 203.033,311.652 203.106 C 348.427 203.182,363.083 203.337,363.466 203.655 C 364.212 204.274,364.265 312.775,363.520 313.520 C 362.880 314.160,38.369 314.225,37.174 313.586 C 36.197 313.063,35.926 204.354,36.900 203.724 C 37.175 203.546,60.582 203.310,88.915 203.200 C 128.064 203.048,140.500 202.886,140.723 202.525 C 140.884 202.264,141.485 201.872,142.057 201.654 C 142.700 201.410,143.207 200.828,143.381 200.133 C 143.536 199.514,143.874 198.878,144.132 198.719 C 144.484 198.501,144.650 185.669,144.800 147.000 C 144.976 101.867,145.073 95.524,145.600 95.191 C 146.963 94.330,254.722 94.706,255.186 95.574 M151.890 98.399 C 150.167 98.922,148.478 100.992,148.203 102.919 C 147.530 107.634,148.189 199.257,148.900 199.776 C 149.285 200.058,149.600 200.464,149.600 200.680 C 149.600 201.124,151.339 202.000,152.219 202.000 C 152.538 202.000,152.800 202.180,152.800 202.400 C 152.800 202.664,168.933 202.800,200.400 202.800 C 231.867 202.800,248.000 202.664,248.000 202.400 C 248.000 202.180,248.234 202.000,248.520 202.000 C 250.129 202.000,252.000 200.129,252.000 198.520 C 252.000 198.234,252.180 198.000,252.400 198.000 C 252.664 198.000,252.800 181.867,252.800 150.400 C 252.800 118.933,252.664 102.800,252.400 102.800 C 252.180 102.800,252.000 102.538,252.000 102.219 C 252.000 101.339,251.124 99.600,250.680 99.600 C 250.464 99.600,250.058 99.285,249.776 98.900 C 249.214 98.131,154.371 97.646,151.890 98.399 M246.655 100.600 C 246.782 100.930,247.091 101.199,247.343 101.197 C 247.594 101.196,248.385 101.869,249.100 102.693 L 250.400 104.191 250.400 150.101 C 250.400 198.730,250.480 196.629,248.555 198.555 C 246.629 200.480,248.730 200.400,200.101 200.400 L 154.191 200.400 152.693 199.100 C 151.869 198.385,151.196 197.594,151.197 197.343 C 151.199 197.091,150.930 196.782,150.600 196.655 C 149.705 196.312,149.687 104.608,150.581 103.634 C 150.901 103.285,151.576 102.589,152.081 102.087 C 152.587 101.585,153.264 100.910,153.587 100.587 C 154.487 99.688,246.310 99.700,246.655 100.600 M194.100 118.233 C 193.385 118.829,192.800 119.560,192.800 119.858 C 192.800 120.156,192.620 120.400,192.400 120.400 C 192.155 120.400,192.000 122.333,192.000 125.400 C 192.000 128.150,192.150 130.400,192.332 130.400 C 192.515 130.400,192.899 130.838,193.186 131.374 C 194.032 132.955,195.461 133.279,200.940 133.133 L 205.952 133.000 207.204 131.600 L 208.455 130.200 208.328 125.000 C 208.148 117.686,207.913 117.451,200.600 117.275 C 195.451 117.151,195.387 117.160,194.100 118.233 M205.454 120.221 C 206.831 121.707,206.883 128.639,205.528 130.197 C 204.316 131.591,196.543 131.743,195.200 130.400 C 193.992 129.192,194.003 121.377,195.216 120.075 C 196.544 118.650,204.098 118.757,205.454 120.221 M170.400 142.400 C 170.400 142.620,170.156 142.800,169.858 142.800 C 166.949 142.800,165.928 154.328,168.600 157.000 L 169.800 158.200 200.020 158.307 L 230.240 158.415 231.620 157.183 L 233.000 155.952 233.133 150.940 C 233.279 145.461,232.955 144.032,231.374 143.186 C 230.838 142.899,230.400 142.515,230.400 142.332 C 230.400 142.150,216.900 142.000,200.400 142.000 C 180.667 142.000,170.400 142.137,170.400 142.400 M230.400 145.200 C 231.743 146.543,231.591 154.316,230.197 155.528 L 229.194 156.400 200.218 156.400 L 171.241 156.400 170.221 155.454 C 168.757 154.098,168.650 146.544,170.075 145.216 C 171.439 143.945,229.130 143.930,230.400 145.200 M194.100 168.233 C 193.385 168.829,192.800 169.560,192.800 169.858 C 192.800 170.156,192.620 170.400,192.400 170.400 C 192.155 170.400,192.000 172.333,192.000 175.400 C 192.000 178.150,192.150 180.400,192.332 180.400 C 192.515 180.400,192.899 180.838,193.186 181.374 C 194.032 182.955,195.461 183.279,200.940 183.133 L 205.952 183.000 207.204 181.600 L 208.455 180.200 208.328 175.000 C 208.148 167.686,207.913 167.451,200.600 167.275 C 195.451 167.151,195.387 167.160,194.100 168.233 M205.454 170.221 C 206.831 171.707,206.883 178.639,205.528 180.197 C 204.316 181.591,196.543 181.743,195.200 180.400 C 193.992 179.192,194.003 171.377,195.216 170.075 C 196.544 168.650,204.098 168.757,205.454 170.221 M43.528 206.789 C 42.938 206.969,41.858 207.720,41.128 208.458 L 39.800 209.800 39.800 258.610 L 39.800 307.420 41.311 308.887 C 43.424 310.939,40.880 310.850,93.532 310.718 C 138.070 310.607,140.895 310.559,141.376 309.900 C 141.658 309.515,142.029 309.200,142.200 309.200 C 142.694 309.200,143.573 307.869,143.587 307.100 C 143.594 306.715,143.780 306.400,144.000 306.400 C 144.264 306.400,144.400 290.200,144.400 258.600 C 144.400 227.000,144.264 210.800,144.000 210.800 C 143.780 210.800,143.594 210.485,143.587 210.100 C 143.573 209.331,142.694 208.000,142.200 208.000 C 142.029 208.000,141.658 207.685,141.376 207.300 C 140.819 206.538,45.976 206.043,43.528 206.789 M151.945 206.784 C 151.365 206.962,150.285 207.685,149.545 208.392 L 148.200 209.678 148.200 258.619 L 148.200 307.560 149.728 308.960 C 151.878 310.929,149.511 310.849,201.932 310.718 C 246.470 310.607,249.295 310.559,249.776 309.900 C 250.058 309.515,250.429 309.200,250.600 309.200 C 251.094 309.200,251.973 307.869,251.987 307.100 C 251.994 306.715,252.180 306.400,252.400 306.400 C 252.664 306.400,252.800 290.200,252.800 258.600 C 252.800 227.000,252.664 210.800,252.400 210.800 C 252.180 210.800,251.994 210.485,251.987 210.100 C 251.973 209.331,251.094 208.000,250.600 208.000 C 250.429 208.000,250.058 207.685,249.776 207.300 C 249.221 206.541,154.379 206.041,151.945 206.784 M260.214 206.689 C 259.782 206.801,258.792 207.528,258.014 208.306 L 256.600 209.720 256.600 258.600 L 256.600 307.480 258.160 309.040 L 259.720 310.600 308.600 310.600 L 357.480 310.600 359.040 309.040 L 360.600 307.480 360.600 258.600 L 360.600 209.720 359.040 208.160 L 357.480 206.600 309.240 206.543 C 282.708 206.512,260.646 206.578,260.214 206.689 M138.472 208.900 C 139.702 209.614,140.921 210.838,141.500 211.940 C 142.231 213.330,142.231 303.870,141.500 305.260 C 140.921 306.362,139.702 307.586,138.472 308.300 C 137.316 308.971,46.790 309.037,45.540 308.368 C 44.257 307.681,42.800 306.300,42.800 305.771 C 42.800 305.504,42.530 305.182,42.200 305.055 C 41.288 304.705,41.288 212.495,42.200 212.145 C 42.530 212.018,42.800 211.696,42.800 211.429 C 42.800 210.923,44.146 209.617,45.444 208.863 C 46.608 208.187,137.307 208.223,138.472 208.900 M246.860 208.900 C 247.946 209.539,249.261 210.854,249.900 211.940 C 250.292 212.606,250.400 222.671,250.400 258.600 C 250.400 307.124,250.480 305.029,248.555 306.955 C 246.629 308.880,248.730 308.800,200.101 308.800 L 154.191 308.800 152.693 307.500 C 151.869 306.785,151.196 305.994,151.197 305.743 C 151.199 305.491,150.930 305.182,150.600 305.055 C 150.071 304.853,150.000 299.320,150.000 258.600 C 150.000 217.880,150.071 212.347,150.600 212.145 C 150.930 212.018,151.199 211.709,151.197 211.457 C 151.196 211.206,151.869 210.415,152.693 209.700 L 154.191 208.400 200.101 208.400 C 236.109 208.400,246.194 208.508,246.860 208.900 M355.260 208.900 C 356.346 209.539,357.661 210.854,358.300 211.940 C 358.692 212.606,358.800 222.671,358.800 258.600 C 358.800 307.124,358.880 305.029,356.955 306.955 C 355.029 308.880,357.124 308.800,308.600 308.800 C 260.076 308.800,262.171 308.880,260.245 306.955 C 258.320 305.029,258.400 307.124,258.400 258.600 C 258.400 222.671,258.508 212.606,258.900 211.940 C 259.500 210.921,260.812 209.578,261.847 208.924 C 262.970 208.213,354.054 208.190,355.260 208.900 M85.557 226.779 L 84.200 228.018 84.078 237.106 C 83.978 244.522,83.850 246.252,83.378 246.516 C 83.060 246.694,82.800 247.035,82.800 247.274 C 82.800 247.771,81.142 249.389,80.013 249.993 C 79.565 250.233,75.714 250.400,70.626 250.400 C 65.142 250.400,62.000 250.546,62.000 250.800 C 62.000 251.020,61.756 251.200,61.458 251.200 C 61.160 251.200,60.440 251.775,59.858 252.477 C 57.470 255.359,58.729 266.000,61.458 266.000 C 61.756 266.000,62.000 266.180,62.000 266.400 C 62.000 266.654,65.142 266.800,70.626 266.800 C 75.714 266.800,79.565 266.967,80.013 267.207 C 81.142 267.811,82.800 269.429,82.800 269.926 C 82.800 270.165,83.060 270.506,83.378 270.684 C 83.850 270.948,83.978 272.678,84.078 280.094 L 84.200 289.182 85.557 290.421 L 86.915 291.660 92.220 291.530 L 97.525 291.400 98.663 290.200 L 99.800 289.000 99.921 279.879 C 100.021 272.368,100.144 270.720,100.621 270.537 C 100.939 270.414,101.199 270.109,101.197 269.857 C 101.196 269.606,101.869 268.815,102.693 268.100 L 104.191 266.800 112.913 266.800 C 121.865 266.800,121.856 266.801,123.529 265.129 C 125.131 263.527,125.200 263.256,125.200 258.600 C 125.200 253.944,125.131 253.673,123.529 252.071 C 121.856 250.399,121.865 250.400,112.913 250.400 L 104.191 250.400 102.693 249.100 C 101.869 248.385,101.196 247.594,101.197 247.343 C 101.199 247.091,100.939 246.786,100.621 246.663 C 100.144 246.480,100.021 244.832,99.921 237.321 L 99.800 228.200 98.663 227.000 L 97.525 225.800 92.220 225.670 L 86.915 225.540 85.557 226.779 M170.000 225.892 C 167.793 226.736,167.400 227.902,167.400 233.600 C 167.400 239.545,167.688 240.277,170.515 241.510 C 172.627 242.431,174.769 244.573,175.690 246.685 C 176.284 248.047,177.479 249.241,178.884 249.877 C 179.981 250.374,181.374 251.420,182.149 252.329 C 182.397 252.619,182.915 253.204,183.300 253.629 C 183.873 254.260,184.000 255.161,184.000 258.600 C 184.000 262.039,183.873 262.940,183.300 263.571 C 182.915 263.996,182.397 264.581,182.149 264.871 C 181.374 265.780,179.981 266.826,178.884 267.323 C 177.479 267.959,176.284 269.153,175.690 270.515 C 174.769 272.627,172.627 274.769,170.515 275.690 C 167.688 276.923,167.400 277.655,167.400 283.600 C 167.400 291.187,167.554 291.348,174.963 291.530 L 180.250 291.659 181.525 290.541 C 182.226 289.925,182.800 289.229,182.800 288.992 C 182.800 287.787,187.787 282.800,188.992 282.800 C 189.573 282.800,191.600 280.452,191.600 279.779 C 191.600 279.482,191.825 279.096,192.101 278.920 C 192.376 278.744,192.843 278.130,193.138 277.556 C 194.031 275.820,195.934 275.200,200.368 275.200 C 205.423 275.200,206.944 275.966,208.532 279.313 C 209.425 281.195,210.734 282.605,211.939 282.984 C 212.456 283.146,213.208 283.576,213.611 283.939 C 214.013 284.303,214.581 284.803,214.871 285.051 C 215.780 285.826,216.826 287.219,217.323 288.316 C 218.604 291.145,219.183 291.388,224.980 291.530 L 230.285 291.660 231.643 290.420 L 233.000 289.180 233.000 283.600 L 233.000 278.020 231.675 276.810 C 230.947 276.144,230.101 275.600,229.795 275.600 C 229.490 275.600,229.096 275.375,228.920 275.099 C 228.744 274.824,228.123 274.353,227.540 274.053 C 226.957 273.753,226.165 272.808,225.779 271.954 C 225.394 271.099,224.926 270.400,224.739 270.400 C 224.553 270.400,224.400 270.162,224.400 269.872 C 224.400 269.215,222.673 267.684,221.374 267.190 C 220.838 266.987,220.400 266.635,220.400 266.410 C 220.400 266.184,220.175 266.001,219.900 266.003 C 219.625 266.004,218.815 265.331,218.100 264.507 C 215.375 261.366,216.752 251.181,219.900 251.197 C 220.175 251.199,220.400 251.016,220.400 250.790 C 220.400 250.565,220.838 250.213,221.374 250.010 C 222.673 249.516,224.400 247.985,224.400 247.328 C 224.400 247.038,224.553 246.800,224.739 246.800 C 224.926 246.800,225.394 246.101,225.779 245.246 C 226.165 244.392,226.957 243.447,227.540 243.147 C 228.123 242.847,228.744 242.376,228.920 242.101 C 229.096 241.825,229.490 241.600,229.795 241.600 C 230.101 241.600,230.947 241.056,231.675 240.390 L 233.000 239.180 233.000 233.600 L 233.000 228.020 231.643 226.780 L 230.285 225.540 224.980 225.670 C 219.183 225.812,218.604 226.055,217.323 228.884 C 216.826 229.981,215.780 231.374,214.871 232.149 C 214.581 232.397,214.013 232.897,213.611 233.261 C 213.208 233.624,212.456 234.054,211.939 234.216 C 210.734 234.595,209.425 236.005,208.532 237.887 C 206.944 241.234,205.423 242.000,200.368 242.000 C 195.934 242.000,194.031 241.380,193.138 239.644 C 192.843 239.070,192.376 238.456,192.101 238.280 C 191.825 238.104,191.600 237.718,191.600 237.421 C 191.600 236.748,189.573 234.400,188.992 234.400 C 187.787 234.400,182.800 229.413,182.800 228.208 C 182.800 226.133,173.685 224.484,170.000 225.892 M97.074 228.536 C 97.916 229.425,97.952 229.816,98.074 239.362 C 98.187 248.244,98.272 249.318,98.900 249.777 C 99.285 250.058,99.600 250.464,99.600 250.680 C 99.600 251.124,101.339 252.000,102.219 252.000 C 102.538 252.000,102.800 252.180,102.800 252.400 C 102.800 252.655,106.104 252.800,111.911 252.800 C 123.498 252.800,122.800 252.428,122.800 258.600 C 122.800 264.772,123.498 264.400,111.911 264.400 C 106.104 264.400,102.800 264.545,102.800 264.800 C 102.800 265.020,102.538 265.200,102.219 265.200 C 101.339 265.200,99.600 266.076,99.600 266.520 C 99.600 266.736,99.285 267.142,98.900 267.423 C 98.272 267.882,98.187 268.956,98.074 277.838 C 97.916 290.226,98.253 289.583,91.916 289.593 C 85.708 289.603,86.080 290.329,85.925 277.923 C 85.812 268.911,85.732 267.905,85.100 267.552 C 84.715 267.336,84.399 266.944,84.397 266.680 C 84.394 266.180,82.622 265.200,81.720 265.200 C 81.434 265.200,81.200 265.020,81.200 264.800 C 81.200 264.545,77.824 264.395,71.900 264.387 C 60.187 264.370,60.800 264.690,60.800 258.600 C 60.800 252.510,60.187 252.830,71.900 252.813 C 77.824 252.805,81.200 252.655,81.200 252.400 C 81.200 252.180,81.434 252.000,81.720 252.000 C 82.622 252.000,84.394 251.020,84.397 250.520 C 84.399 250.256,84.715 249.864,85.100 249.648 C 85.732 249.295,85.812 248.289,85.925 239.277 C 86.080 226.871,85.708 227.597,91.916 227.607 C 95.865 227.613,96.268 227.686,97.074 228.536 M180.344 228.432 C 180.770 228.889,181.236 230.043,181.379 230.996 C 181.521 231.949,181.900 232.829,182.219 232.952 C 182.539 233.075,182.800 233.451,182.800 233.787 C 182.800 234.124,183.076 234.400,183.413 234.400 C 183.749 234.400,184.125 234.661,184.248 234.981 C 184.371 235.300,185.251 235.679,186.204 235.821 C 188.460 236.160,189.438 237.123,189.769 239.333 C 189.919 240.330,190.297 241.228,190.619 241.352 C 190.939 241.475,191.200 241.822,191.200 242.123 C 191.200 242.693,192.808 243.600,193.819 243.600 C 194.138 243.600,194.400 243.780,194.400 244.000 C 194.400 244.249,196.667 244.400,200.400 244.400 C 204.133 244.400,206.400 244.249,206.400 244.000 C 206.400 243.780,206.715 243.594,207.100 243.587 C 207.938 243.572,209.200 242.677,209.200 242.099 C 209.200 241.871,209.452 241.589,209.760 241.471 C 210.068 241.352,210.448 240.502,210.603 239.581 C 210.992 237.279,212.094 236.137,214.238 235.815 C 215.207 235.670,216.000 235.394,216.000 235.202 C 216.000 235.011,216.360 234.740,216.800 234.600 C 217.240 234.460,217.600 234.107,217.600 233.816 C 217.600 233.524,217.852 233.189,218.160 233.071 C 218.468 232.952,218.851 232.079,219.012 231.131 C 219.530 228.060,220.323 227.615,225.284 227.607 C 231.058 227.598,231.200 227.741,231.200 233.600 C 231.200 238.585,230.797 239.330,227.867 239.769 C 226.870 239.919,225.972 240.297,225.848 240.619 C 225.725 240.939,225.378 241.200,225.077 241.200 C 224.507 241.200,223.600 242.808,223.600 243.819 C 223.600 244.138,223.420 244.400,223.200 244.400 C 222.980 244.400,222.800 244.818,222.800 245.328 C 222.800 246.599,221.230 247.857,219.219 248.197 C 218.298 248.352,217.448 248.732,217.329 249.040 C 217.211 249.348,216.893 249.600,216.621 249.600 C 216.096 249.600,215.200 251.251,215.200 252.219 C 215.200 252.538,215.020 252.800,214.800 252.800 C 214.552 252.800,214.400 255.000,214.400 258.600 C 214.400 262.200,214.552 264.400,214.800 264.400 C 215.020 264.400,215.200 264.662,215.200 264.981 C 215.200 265.949,216.096 267.600,216.621 267.600 C 216.893 267.600,217.213 267.857,217.334 268.172 C 217.455 268.489,218.382 268.868,219.408 269.022 C 221.474 269.332,222.800 270.447,222.800 271.875 C 222.800 272.384,222.980 272.800,223.200 272.800 C 223.420 272.800,223.600 273.062,223.600 273.381 C 223.600 274.392,224.507 276.000,225.077 276.000 C 225.378 276.000,225.725 276.261,225.848 276.581 C 225.972 276.903,226.870 277.281,227.867 277.431 C 230.797 277.870,231.200 278.615,231.200 283.600 C 231.200 289.459,231.058 289.602,225.284 289.593 C 220.323 289.585,219.530 289.140,219.012 286.069 C 218.851 285.121,218.468 284.248,218.160 284.129 C 217.852 284.011,217.600 283.676,217.600 283.384 C 217.600 283.093,217.240 282.740,216.800 282.600 C 216.360 282.460,216.000 282.189,216.000 281.998 C 216.000 281.806,215.207 281.530,214.238 281.385 C 212.094 281.063,210.992 279.921,210.603 277.619 C 210.448 276.698,210.068 275.848,209.760 275.729 C 209.452 275.611,209.200 275.329,209.200 275.101 C 209.200 274.523,207.938 273.628,207.100 273.613 C 206.715 273.606,206.400 273.420,206.400 273.200 C 206.400 272.951,204.133 272.800,200.400 272.800 C 196.667 272.800,194.400 272.951,194.400 273.200 C 194.400 273.420,194.138 273.600,193.819 273.600 C 192.808 273.600,191.200 274.507,191.200 275.077 C 191.200 275.378,190.939 275.725,190.619 275.848 C 190.297 275.972,189.919 276.870,189.769 277.867 C 189.438 280.077,188.460 281.040,186.204 281.379 C 185.251 281.521,184.371 281.900,184.248 282.219 C 184.125 282.539,183.749 282.800,183.413 282.800 C 183.076 282.800,182.800 283.076,182.800 283.413 C 182.800 283.749,182.539 284.125,182.219 284.248 C 181.900 284.371,181.521 285.251,181.379 286.204 C 180.928 289.211,180.236 289.600,175.341 289.600 C 169.464 289.600,169.214 289.355,169.214 283.600 C 169.214 278.794,169.661 277.969,172.557 277.431 C 173.414 277.272,174.353 276.930,174.644 276.671 C 176.805 274.745,177.109 274.294,177.431 272.545 C 177.804 270.514,179.004 269.366,181.128 269.010 C 182.078 268.851,182.952 268.468,183.071 268.160 C 183.189 267.852,183.536 267.600,183.843 267.600 C 184.149 267.600,184.400 267.433,184.400 267.229 C 184.400 267.024,184.715 266.542,185.100 266.157 C 185.712 265.545,185.800 264.597,185.800 258.600 C 185.800 252.603,185.712 251.655,185.100 251.043 C 184.715 250.658,184.400 250.176,184.400 249.971 C 184.400 249.767,184.149 249.600,183.843 249.600 C 183.536 249.600,183.189 249.348,183.071 249.040 C 182.952 248.732,182.114 248.354,181.207 248.201 C 179.104 247.846,177.794 246.615,177.432 244.655 C 177.109 242.905,176.804 242.454,174.644 240.529 C 174.353 240.270,173.414 239.928,172.557 239.769 C 169.672 239.233,169.215 238.399,169.207 233.656 C 169.197 227.863,169.445 227.616,175.284 227.607 C 179.113 227.601,179.651 227.688,180.344 228.432 M278.800 250.702 C 278.800 250.869,278.288 251.232,277.661 251.509 C 275.968 252.258,275.600 253.525,275.600 258.600 C 275.600 263.675,275.968 264.942,277.661 265.691 C 278.288 265.968,278.800 266.331,278.800 266.498 C 278.800 266.664,292.210 266.800,308.600 266.800 C 324.990 266.800,338.400 266.664,338.400 266.498 C 338.400 266.331,338.912 265.968,339.539 265.691 C 341.232 264.942,341.600 263.675,341.600 258.600 C 341.600 253.525,341.232 252.258,339.539 251.509 C 338.912 251.232,338.400 250.869,338.400 250.702 C 338.400 250.536,324.990 250.400,308.600 250.400 C 292.210 250.400,278.800 250.536,278.800 250.702 M338.614 253.446 C 339.565 254.069,339.600 254.250,339.600 258.600 C 339.600 262.950,339.565 263.131,338.614 263.754 C 337.110 264.740,280.090 264.740,278.586 263.754 C 277.124 262.796,277.054 254.478,278.500 253.470 C 279.891 252.499,337.135 252.477,338.614 253.446 " stroke="none" fill="#355d00" fill-rule="evenodd"></path><path id="path3" d="M144.800 90.320 C 144.800 90.495,144.160 90.871,143.377 91.154 C 142.371 91.517,141.756 92.098,141.277 93.134 C 140.905 93.940,140.465 94.660,140.300 94.733 C 140.135 94.807,140.000 117.667,140.000 145.535 L 140.000 196.203 138.836 197.301 L 137.672 198.400 87.064 198.400 C 47.127 198.400,36.346 198.505,35.929 198.900 C 35.638 199.175,34.906 199.655,34.302 199.967 C 33.693 200.281,32.989 201.128,32.721 201.867 C 32.456 202.600,32.095 203.200,31.920 203.200 C 31.744 203.200,31.600 228.130,31.600 258.600 C 31.600 289.070,31.744 314.000,31.920 314.000 C 32.095 314.000,32.456 314.600,32.721 315.333 C 32.989 316.072,33.693 316.919,34.302 317.233 C 34.906 317.545,35.639 318.026,35.930 318.301 C 36.802 319.126,364.348 318.826,365.339 318.000 C 366.254 317.236,367.236 316.254,368.000 315.339 C 368.527 314.707,368.600 307.809,368.600 258.600 C 368.600 198.425,368.730 202.473,366.729 200.471 C 364.731 198.473,368.337 198.608,313.675 198.495 L 262.729 198.391 261.569 197.231 L 260.409 196.071 260.305 145.021 C 260.234 110.788,260.065 93.877,259.791 93.685 C 259.566 93.528,259.077 92.921,258.704 92.335 C 258.325 91.737,257.494 91.152,256.814 91.003 C 256.146 90.856,255.600 90.571,255.600 90.368 C 255.600 90.146,233.679 90.000,200.200 90.000 C 169.730 90.000,144.800 90.144,144.800 90.320 M255.039 92.500 C 255.372 92.775,256.219 93.533,256.922 94.184 L 258.200 95.368 258.400 146.415 L 258.600 197.462 259.969 198.831 L 261.338 200.200 312.102 200.305 C 351.801 200.386,362.980 200.517,363.388 200.905 C 363.676 201.177,364.246 201.689,364.655 202.043 C 366.983 204.053,366.800 199.212,366.800 258.633 C 366.800 301.465,366.695 312.968,366.300 313.384 C 366.025 313.674,365.511 314.246,365.157 314.655 C 364.804 315.065,364.127 315.715,363.653 316.100 C 362.640 316.923,37.600 317.222,37.600 316.400 C 37.600 316.180,37.363 316.000,37.074 316.000 C 36.784 316.000,35.974 315.353,35.274 314.561 L 34.000 313.123 34.000 258.600 L 34.000 204.077 35.274 202.639 C 35.974 201.847,36.784 201.200,37.074 201.200 C 37.363 201.200,37.600 201.022,37.600 200.805 C 37.600 200.547,55.240 200.373,88.346 200.305 L 139.093 200.200 140.446 198.877 L 141.800 197.553 141.905 146.897 C 141.962 119.037,142.142 96.142,142.305 96.021 C 142.468 95.899,142.855 95.307,143.166 94.705 C 143.476 94.102,144.241 93.383,144.865 93.107 C 145.489 92.831,146.000 92.469,146.000 92.302 C 146.000 91.739,254.355 91.935,255.039 92.500 M153.587 100.587 C 153.264 100.910,152.587 101.585,152.081 102.087 C 151.576 102.589,150.901 103.285,150.581 103.634 C 149.687 104.608,149.705 196.312,150.600 196.655 C 150.930 196.782,151.199 197.091,151.197 197.343 C 151.196 197.594,151.869 198.385,152.693 199.100 L 154.191 200.400 200.101 200.400 C 248.730 200.400,246.629 200.480,248.555 198.555 C 250.480 196.629,250.400 198.730,250.400 150.101 L 250.400 104.191 249.100 102.693 C 248.385 101.869,247.594 101.196,247.343 101.197 C 247.091 101.199,246.782 100.930,246.655 100.600 C 246.310 99.700,154.487 99.688,153.587 100.587 M246.967 103.443 C 247.539 103.662,247.600 108.157,247.600 150.235 L 247.600 196.785 246.700 197.002 C 246.205 197.122,225.010 197.170,199.600 197.110 L 153.400 197.000 153.297 150.600 C 153.240 125.080,153.280 103.975,153.384 103.700 C 153.585 103.173,245.605 102.920,246.967 103.443 M195.039 114.270 C 194.400 114.377,193.623 114.720,193.310 115.032 C 192.998 115.345,192.482 115.600,192.163 115.600 C 191.844 115.600,191.378 116.050,191.127 116.600 C 190.877 117.150,190.535 117.600,190.369 117.600 C 189.814 117.600,189.200 121.595,189.200 125.200 C 189.200 128.852,189.816 132.800,190.386 132.800 C 190.563 132.800,190.801 133.159,190.915 133.598 C 191.030 134.037,191.456 134.519,191.862 134.669 C 192.268 134.819,192.713 135.110,192.851 135.316 C 193.933 136.926,206.593 136.665,208.259 134.998 C 208.578 134.679,209.100 134.272,209.419 134.093 C 209.738 133.915,210.222 132.831,210.494 131.684 C 210.767 130.538,211.127 129.600,211.295 129.600 C 211.463 129.600,211.600 127.620,211.600 125.200 C 211.600 122.780,211.443 120.800,211.251 120.800 C 211.059 120.800,210.788 120.085,210.648 119.211 C 210.382 117.547,208.509 115.200,207.447 115.200 C 207.128 115.200,206.794 114.983,206.706 114.717 C 206.539 114.217,197.434 113.869,195.039 114.270 M207.000 118.600 C 208.194 119.794,208.201 119.827,208.328 125.000 L 208.455 130.200 207.204 131.600 L 205.952 133.000 200.940 133.133 C 195.461 133.279,194.032 132.955,193.186 131.374 C 192.899 130.838,192.515 130.400,192.332 130.400 C 192.150 130.400,192.000 128.150,192.000 125.400 C 192.000 122.333,192.155 120.400,192.400 120.400 C 192.620 120.400,192.800 120.156,192.800 119.858 C 192.800 116.949,204.328 115.928,207.000 118.600 M169.300 139.666 C 168.365 139.876,167.600 140.188,167.600 140.359 C 167.600 140.531,167.150 140.877,166.600 141.127 C 166.050 141.378,165.600 141.844,165.600 142.163 C 165.600 142.482,165.285 143.058,164.900 143.443 C 164.007 144.336,163.825 156.408,164.700 156.700 C 164.975 156.792,165.200 157.128,165.200 157.447 C 165.200 158.509,167.547 160.382,169.211 160.648 C 170.085 160.788,170.800 161.059,170.800 161.251 C 170.800 161.446,183.739 161.600,200.200 161.600 C 216.370 161.600,229.600 161.463,229.600 161.295 C 229.600 161.127,230.538 160.767,231.684 160.494 C 232.831 160.222,233.915 159.738,234.093 159.419 C 234.272 159.100,234.679 158.578,234.998 158.259 C 236.665 156.593,236.926 143.933,235.316 142.851 C 235.110 142.713,234.819 142.268,234.669 141.862 C 234.519 141.456,234.037 141.030,233.598 140.915 C 233.159 140.801,232.800 140.563,232.800 140.386 C 232.800 139.226,174.230 138.562,169.300 139.666 M230.400 142.332 C 230.400 142.515,230.838 142.899,231.374 143.186 C 232.955 144.032,233.279 145.461,233.133 150.940 L 233.000 155.952 231.620 157.183 L 230.240 158.415 200.020 158.307 L 169.800 158.200 168.600 157.000 C 165.928 154.328,166.949 142.800,169.858 142.800 C 170.156 142.800,170.400 142.620,170.400 142.400 C 170.400 142.137,180.667 142.000,200.400 142.000 C 216.900 142.000,230.400 142.150,230.400 142.332 M195.039 164.270 C 194.400 164.377,193.623 164.720,193.310 165.032 C 192.998 165.345,192.482 165.600,192.163 165.600 C 191.844 165.600,191.378 166.050,191.127 166.600 C 190.877 167.150,190.535 167.600,190.369 167.600 C 189.814 167.600,189.200 171.595,189.200 175.200 C 189.200 178.852,189.816 182.800,190.386 182.800 C 190.563 182.800,190.801 183.159,190.915 183.598 C 191.030 184.037,191.456 184.519,191.862 184.669 C 192.268 184.819,192.713 185.110,192.851 185.316 C 193.933 186.926,206.593 186.665,208.259 184.998 C 208.578 184.679,209.100 184.272,209.419 184.093 C 209.738 183.915,210.222 182.831,210.494 181.684 C 210.767 180.538,211.127 179.600,211.295 179.600 C 211.463 179.600,211.600 177.620,211.600 175.200 C 211.600 172.780,211.443 170.800,211.251 170.800 C 211.059 170.800,210.788 170.085,210.648 169.211 C 210.382 167.547,208.509 165.200,207.447 165.200 C 207.128 165.200,206.794 164.983,206.706 164.717 C 206.539 164.217,197.434 163.869,195.039 164.270 M207.000 168.600 C 208.194 169.794,208.201 169.827,208.328 175.000 L 208.455 180.200 207.204 181.600 L 205.952 183.000 200.940 183.133 C 195.461 183.279,194.032 182.955,193.186 181.374 C 192.899 180.838,192.515 180.400,192.332 180.400 C 192.150 180.400,192.000 178.150,192.000 175.400 C 192.000 172.333,192.155 170.400,192.400 170.400 C 192.620 170.400,192.800 170.156,192.800 169.858 C 192.800 166.949,204.328 165.928,207.000 168.600 M45.444 208.863 C 44.146 209.617,42.800 210.923,42.800 211.429 C 42.800 211.696,42.530 212.018,42.200 212.145 C 41.288 212.495,41.288 304.705,42.200 305.055 C 42.530 305.182,42.800 305.504,42.800 305.771 C 42.800 306.300,44.257 307.681,45.540 308.368 C 46.790 309.037,137.316 308.971,138.472 308.300 C 139.702 307.586,140.921 306.362,141.500 305.260 C 142.231 303.870,142.231 213.330,141.500 211.940 C 140.921 210.838,139.702 209.614,138.472 208.900 C 137.307 208.223,46.608 208.187,45.444 208.863 M152.693 209.700 C 151.869 210.415,151.196 211.206,151.197 211.457 C 151.199 211.709,150.930 212.018,150.600 212.145 C 150.071 212.347,150.000 217.880,150.000 258.600 C 150.000 299.320,150.071 304.853,150.600 305.055 C 150.930 305.182,151.199 305.491,151.197 305.743 C 151.196 305.994,151.869 306.785,152.693 307.500 L 154.191 308.800 200.101 308.800 C 248.730 308.800,246.629 308.880,248.555 306.955 C 250.480 305.029,250.400 307.124,250.400 258.600 C 250.400 210.076,250.480 212.171,248.555 210.245 C 246.629 208.320,248.730 208.400,200.101 208.400 L 154.191 208.400 152.693 209.700 M261.847 208.924 C 260.812 209.578,259.500 210.921,258.900 211.940 C 258.508 212.606,258.400 222.671,258.400 258.600 C 258.400 307.124,258.320 305.029,260.245 306.955 C 262.171 308.880,260.076 308.800,308.600 308.800 C 357.124 308.800,355.029 308.880,356.955 306.955 C 358.880 305.029,358.800 307.124,358.800 258.600 C 358.800 222.671,358.692 212.606,358.300 211.940 C 357.661 210.854,356.346 209.539,355.260 208.900 C 354.054 208.190,262.970 208.213,261.847 208.924 M138.567 211.843 C 139.139 212.062,139.200 216.557,139.200 258.635 L 139.200 305.185 138.300 305.402 C 137.805 305.522,116.610 305.570,91.200 305.510 L 45.000 305.400 44.897 259.000 C 44.840 233.480,44.880 212.375,44.984 212.100 C 45.185 211.573,137.205 211.320,138.567 211.843 M246.967 211.843 C 247.539 212.062,247.600 216.557,247.600 258.635 L 247.600 305.185 246.700 305.402 C 246.205 305.522,225.010 305.570,199.600 305.510 L 153.400 305.400 153.297 259.000 C 153.240 233.480,153.280 212.375,153.384 212.100 C 153.585 211.573,245.605 211.320,246.967 211.843 M355.400 258.600 L 355.400 305.400 308.600 305.400 L 261.800 305.400 261.697 259.000 C 261.640 233.480,261.680 212.374,261.785 212.098 C 261.937 211.699,271.529 211.617,308.688 211.698 L 355.400 211.800 355.400 258.600 M86.700 222.664 C 86.095 222.768,85.600 223.007,85.600 223.195 C 85.600 223.383,85.048 223.658,84.374 223.806 C 83.632 223.969,82.976 224.454,82.710 225.037 C 82.469 225.567,82.141 226.000,81.982 226.000 C 81.303 226.000,81.068 228.346,80.841 237.400 L 80.600 247.000 71.500 247.108 C 66.495 247.167,62.400 247.369,62.400 247.556 C 62.400 247.744,61.709 248.008,60.864 248.143 C 58.547 248.514,56.400 250.955,56.400 253.219 C 56.400 253.648,56.220 254.000,56.000 254.000 C 55.757 254.000,55.600 255.800,55.600 258.600 C 55.600 261.400,55.757 263.200,56.000 263.200 C 56.220 263.200,56.400 263.552,56.400 263.981 C 56.400 268.496,59.422 269.600,71.777 269.600 C 79.193 269.600,80.346 269.683,80.557 270.233 C 80.691 270.581,80.800 274.532,80.800 279.013 C 80.800 286.576,81.244 291.200,81.969 291.200 C 82.135 291.200,82.466 291.627,82.704 292.149 C 82.942 292.670,83.644 293.225,84.264 293.380 C 84.884 293.536,85.522 293.874,85.681 294.132 C 86.063 294.749,97.900 294.792,98.315 294.177 C 98.472 293.945,99.170 293.524,99.866 293.243 C 100.658 292.923,101.323 292.258,101.643 291.466 C 101.924 290.770,102.345 290.072,102.577 289.915 C 102.848 289.733,103.039 286.352,103.109 280.515 C 103.169 275.502,103.303 271.011,103.407 270.536 C 103.594 269.686,103.750 269.670,113.298 269.502 C 123.767 269.317,125.121 269.075,126.073 267.222 C 126.362 266.660,126.747 266.091,126.928 265.959 C 128.337 264.926,128.337 252.274,126.928 251.241 C 126.747 251.109,126.360 250.536,126.069 249.969 C 125.531 248.923,123.657 248.000,122.072 248.000 C 121.592 248.000,121.200 247.823,121.200 247.608 C 121.200 247.366,117.778 247.174,112.300 247.108 L 103.400 247.000 103.200 237.285 C 103.073 231.127,102.845 227.466,102.577 227.285 C 102.345 227.128,101.924 226.430,101.643 225.734 C 101.323 224.942,100.658 224.277,99.866 223.957 C 99.170 223.676,98.476 223.262,98.324 223.038 C 98.040 222.619,88.711 222.319,86.700 222.664 M169.900 222.664 C 169.295 222.768,168.800 222.985,168.800 223.146 C 168.800 223.307,168.190 223.660,167.444 223.929 C 166.523 224.263,165.922 224.832,165.567 225.710 C 165.280 226.419,164.855 227.128,164.623 227.285 C 164.357 227.465,164.200 229.811,164.200 233.600 C 164.200 237.389,164.357 239.735,164.623 239.915 C 164.855 240.072,165.276 240.770,165.557 241.466 C 165.877 242.258,166.542 242.923,167.334 243.243 C 168.030 243.524,168.690 243.863,168.800 243.995 C 168.910 244.128,169.720 244.408,170.600 244.618 C 172.033 244.960,172.240 245.167,172.582 246.600 C 172.792 247.480,173.072 248.290,173.205 248.400 C 173.337 248.510,173.676 249.170,173.957 249.866 C 174.277 250.658,174.942 251.323,175.734 251.643 C 176.430 251.924,177.090 252.263,177.200 252.395 C 177.310 252.528,178.120 252.808,179.000 253.018 L 180.600 253.400 180.600 258.600 L 180.600 263.800 179.000 264.182 C 178.120 264.392,177.310 264.672,177.200 264.805 C 177.090 264.937,176.430 265.276,175.734 265.557 C 174.942 265.877,174.277 266.542,173.957 267.334 C 173.676 268.030,173.337 268.690,173.205 268.800 C 173.072 268.910,172.792 269.720,172.582 270.600 C 172.240 272.033,172.033 272.240,170.600 272.582 C 169.720 272.792,168.910 273.072,168.800 273.205 C 168.690 273.337,168.030 273.676,167.334 273.957 C 166.542 274.277,165.877 274.942,165.557 275.734 C 165.276 276.430,164.855 277.128,164.623 277.285 C 164.357 277.465,164.200 279.811,164.200 283.600 C 164.200 287.389,164.357 289.735,164.623 289.915 C 164.855 290.072,165.276 290.770,165.557 291.466 C 165.877 292.258,166.542 292.923,167.334 293.243 C 168.030 293.524,168.728 293.945,168.885 294.177 C 169.300 294.792,181.137 294.749,181.519 294.132 C 181.678 293.874,182.306 293.538,182.915 293.386 C 183.523 293.233,184.223 292.724,184.470 292.254 C 184.718 291.784,185.056 291.310,185.222 291.200 C 185.389 291.089,185.767 290.009,186.063 288.800 L 186.600 286.600 188.800 286.063 C 190.009 285.767,191.089 285.389,191.200 285.222 C 191.310 285.056,191.790 284.714,192.267 284.463 C 192.745 284.212,193.254 283.465,193.399 282.803 C 193.545 282.141,193.829 281.600,194.032 281.600 C 194.234 281.600,194.400 281.248,194.400 280.819 C 194.400 278.250,194.920 278.000,200.264 278.000 C 203.035 278.000,205.200 278.163,205.200 278.371 C 205.200 278.576,205.427 278.981,205.704 279.271 C 205.981 279.562,206.442 280.699,206.728 281.798 C 207.015 282.897,207.499 283.936,207.805 284.107 C 208.110 284.278,208.615 284.672,208.925 284.982 C 209.235 285.293,210.459 285.784,211.645 286.073 C 213.693 286.574,213.819 286.680,214.182 288.200 C 214.392 289.080,214.672 289.890,214.805 290.000 C 214.937 290.110,215.276 290.770,215.557 291.466 C 215.877 292.258,216.542 292.923,217.334 293.243 C 218.030 293.524,218.728 293.945,218.885 294.177 C 219.300 294.792,231.137 294.749,231.519 294.132 C 231.678 293.874,232.316 293.536,232.936 293.380 C 233.556 293.225,234.258 292.670,234.496 292.149 C 234.734 291.627,235.065 291.200,235.231 291.200 C 235.786 291.200,236.400 287.205,236.400 283.600 C 236.400 279.995,235.786 276.000,235.231 276.000 C 235.065 276.000,234.731 275.567,234.490 275.037 C 234.224 274.454,233.568 273.969,232.826 273.806 C 232.152 273.658,231.600 273.371,231.600 273.168 C 231.600 272.966,231.248 272.800,230.819 272.800 C 228.941 272.800,228.047 271.954,227.588 269.743 C 227.344 268.565,226.988 267.600,226.799 267.600 C 226.609 267.600,226.335 267.225,226.189 266.766 C 226.044 266.307,225.402 265.750,224.762 265.527 C 224.123 265.304,223.600 264.959,223.600 264.761 C 223.600 264.562,223.158 264.400,222.619 264.400 C 219.837 264.400,219.600 263.944,219.600 258.600 C 219.600 253.256,219.837 252.800,222.619 252.800 C 223.158 252.800,223.600 252.638,223.600 252.439 C 223.600 252.241,224.123 251.896,224.762 251.673 C 225.402 251.450,226.044 250.893,226.189 250.434 C 226.335 249.975,226.609 249.600,226.799 249.600 C 226.988 249.600,227.344 248.635,227.588 247.457 C 228.047 245.246,228.941 244.400,230.819 244.400 C 231.248 244.400,231.600 244.234,231.600 244.032 C 231.600 243.829,232.152 243.542,232.826 243.394 C 233.568 243.231,234.224 242.746,234.490 242.163 C 234.731 241.633,235.065 241.200,235.231 241.200 C 235.786 241.200,236.400 237.205,236.400 233.600 C 236.400 229.995,235.786 226.000,235.231 226.000 C 235.065 226.000,234.734 225.573,234.496 225.051 C 234.258 224.530,233.556 223.975,232.936 223.820 C 232.316 223.664,231.678 223.326,231.519 223.068 C 231.137 222.451,219.300 222.408,218.885 223.023 C 218.728 223.255,218.030 223.676,217.334 223.957 C 216.542 224.277,215.877 224.942,215.557 225.734 C 215.276 226.430,214.937 227.090,214.805 227.200 C 214.672 227.310,214.392 228.120,214.182 229.000 C 213.819 230.520,213.693 230.626,211.645 231.127 C 210.459 231.416,209.235 231.907,208.925 232.218 C 208.615 232.528,208.110 232.922,207.805 233.093 C 207.499 233.264,207.015 234.303,206.728 235.402 C 206.442 236.501,205.981 237.638,205.704 237.929 C 205.427 238.219,205.200 238.624,205.200 238.829 C 205.200 239.037,203.035 239.200,200.264 239.200 C 194.920 239.200,194.400 238.950,194.400 236.381 C 194.400 235.952,194.234 235.600,194.032 235.600 C 193.829 235.600,193.545 235.059,193.399 234.397 C 193.254 233.735,192.745 232.988,192.267 232.737 C 191.790 232.486,191.310 232.144,191.200 231.978 C 191.089 231.811,190.009 231.433,188.800 231.137 L 186.600 230.600 186.063 228.400 C 185.767 227.191,185.389 226.111,185.222 226.000 C 185.056 225.890,184.718 225.416,184.470 224.946 C 184.223 224.476,183.523 223.967,182.915 223.814 C 182.306 223.662,181.682 223.333,181.528 223.084 C 181.241 222.620,172.084 222.289,169.900 222.664 M98.663 227.000 L 99.800 228.200 99.921 237.321 C 100.021 244.832,100.144 246.480,100.621 246.663 C 100.939 246.786,101.199 247.091,101.197 247.343 C 101.196 247.594,101.869 248.385,102.693 249.100 L 104.191 250.400 112.913 250.400 C 121.865 250.400,121.856 250.399,123.529 252.071 C 125.131 253.673,125.200 253.944,125.200 258.600 C 125.200 263.256,125.131 263.527,123.529 265.129 C 121.856 266.801,121.865 266.800,112.913 266.800 L 104.191 266.800 102.693 268.100 C 101.869 268.815,101.196 269.606,101.197 269.857 C 101.199 270.109,100.939 270.414,100.621 270.537 C 100.144 270.720,100.021 272.368,99.921 279.879 L 99.800 289.000 98.663 290.200 L 97.525 291.400 92.220 291.530 L 86.915 291.660 85.557 290.421 L 84.200 289.182 84.078 280.094 C 83.978 272.678,83.850 270.948,83.378 270.684 C 83.060 270.506,82.800 270.165,82.800 269.926 C 82.800 269.429,81.142 267.811,80.013 267.207 C 79.565 266.967,75.714 266.800,70.626 266.800 C 65.142 266.800,62.000 266.654,62.000 266.400 C 62.000 266.180,61.756 266.000,61.458 266.000 C 58.729 266.000,57.470 255.359,59.858 252.477 C 60.440 251.775,61.160 251.200,61.458 251.200 C 61.756 251.200,62.000 251.020,62.000 250.800 C 62.000 250.546,65.142 250.400,70.626 250.400 C 75.714 250.400,79.565 250.233,80.013 249.993 C 81.142 249.389,82.800 247.771,82.800 247.274 C 82.800 247.035,83.060 246.694,83.378 246.516 C 83.850 246.252,83.978 244.522,84.078 237.106 L 84.200 228.018 85.557 226.779 L 86.915 225.540 92.220 225.670 L 97.525 225.800 98.663 227.000 M181.559 226.689 C 182.241 227.288,182.800 227.971,182.800 228.208 C 182.800 229.413,187.787 234.400,188.992 234.400 C 189.573 234.400,191.600 236.748,191.600 237.421 C 191.600 237.718,191.825 238.104,192.101 238.280 C 192.376 238.456,192.843 239.070,193.138 239.644 C 194.031 241.380,195.934 242.000,200.368 242.000 C 205.423 242.000,206.944 241.234,208.532 237.887 C 209.425 236.005,210.734 234.595,211.939 234.216 C 212.456 234.054,213.208 233.624,213.611 233.261 C 214.013 232.897,214.581 232.397,214.871 232.149 C 215.780 231.374,216.826 229.981,217.323 228.884 C 218.604 226.055,219.183 225.812,224.980 225.670 L 230.285 225.540 231.643 226.780 L 233.000 228.020 233.000 233.600 L 233.000 239.180 231.675 240.390 C 230.947 241.056,230.101 241.600,229.795 241.600 C 229.490 241.600,229.096 241.825,228.920 242.101 C 228.744 242.376,228.123 242.847,227.540 243.147 C 226.957 243.447,226.165 244.392,225.779 245.246 C 225.394 246.101,224.926 246.800,224.739 246.800 C 224.553 246.800,224.400 247.038,224.400 247.328 C 224.400 247.985,222.673 249.516,221.374 250.010 C 220.838 250.213,220.400 250.565,220.400 250.790 C 220.400 251.016,220.175 251.199,219.900 251.197 C 219.625 251.196,218.815 251.869,218.100 252.693 C 215.375 255.834,216.752 266.019,219.900 266.003 C 220.175 266.001,220.400 266.184,220.400 266.410 C 220.400 266.635,220.838 266.987,221.374 267.190 C 222.673 267.684,224.400 269.215,224.400 269.872 C 224.400 270.162,224.553 270.400,224.739 270.400 C 224.926 270.400,225.394 271.099,225.779 271.954 C 226.165 272.808,226.957 273.753,227.540 274.053 C 228.123 274.353,228.744 274.824,228.920 275.099 C 229.096 275.375,229.490 275.600,229.795 275.600 C 230.101 275.600,230.947 276.144,231.675 276.810 L 233.000 278.020 233.000 283.600 L 233.000 289.180 231.643 290.420 L 230.285 291.660 224.980 291.530 C 219.183 291.388,218.604 291.145,217.323 288.316 C 216.826 287.219,215.780 285.826,214.871 285.051 C 214.581 284.803,214.013 284.303,213.611 283.939 C 213.208 283.576,212.456 283.146,211.939 282.984 C 210.734 282.605,209.425 281.195,208.532 279.313 C 206.944 275.966,205.423 275.200,200.368 275.200 C 195.934 275.200,194.031 275.820,193.138 277.556 C 192.843 278.130,192.376 278.744,192.101 278.920 C 191.825 279.096,191.600 279.482,191.600 279.779 C 191.600 280.452,189.573 282.800,188.992 282.800 C 187.787 282.800,182.800 287.787,182.800 288.992 C 182.800 289.229,182.226 289.925,181.525 290.541 L 180.250 291.659 174.963 291.530 C 167.554 291.348,167.400 291.187,167.400 283.600 C 167.400 277.655,167.688 276.923,170.515 275.690 C 172.627 274.769,174.769 272.627,175.690 270.515 C 176.284 269.153,177.479 267.959,178.884 267.323 C 179.981 266.826,181.374 265.780,182.149 264.871 C 182.397 264.581,182.915 263.996,183.300 263.571 C 183.873 262.940,184.000 262.039,184.000 258.600 C 184.000 255.161,183.873 254.260,183.300 253.629 C 182.915 253.204,182.397 252.619,182.149 252.329 C 181.374 251.420,179.981 250.374,178.884 249.877 C 177.479 249.241,176.284 248.047,175.690 246.685 C 174.769 244.573,172.627 242.431,170.515 241.510 C 166.169 239.614,165.770 227.509,170.000 225.892 C 172.193 225.055,180.336 225.616,181.559 226.689 M279.200 247.549 C 279.200 247.741,278.511 248.008,277.670 248.142 C 276.111 248.392,274.000 249.854,274.000 250.684 C 274.000 250.936,273.685 251.458,273.300 251.843 C 272.695 252.448,272.600 253.365,272.600 258.600 C 272.600 263.835,272.695 264.752,273.300 265.357 C 273.685 265.742,274.000 266.274,274.000 266.540 C 274.000 269.394,276.329 269.600,308.600 269.600 C 340.871 269.600,343.200 269.394,343.200 266.540 C 343.200 266.274,343.515 265.742,343.900 265.357 C 344.505 264.752,344.600 263.835,344.600 258.600 C 344.600 253.365,344.505 252.448,343.900 251.843 C 343.515 251.458,343.200 250.936,343.200 250.684 C 343.200 249.854,341.089 248.392,339.530 248.142 C 338.689 248.008,338.000 247.741,338.000 247.549 C 338.000 247.354,325.061 247.200,308.600 247.200 C 292.139 247.200,279.200 247.354,279.200 247.549 M338.400 250.702 C 338.400 250.869,338.912 251.232,339.539 251.509 C 341.232 252.258,341.600 253.525,341.600 258.600 C 341.600 263.675,341.232 264.942,339.539 265.691 C 338.912 265.968,338.400 266.331,338.400 266.498 C 338.400 266.664,324.990 266.800,308.600 266.800 C 292.210 266.800,278.800 266.664,278.800 266.498 C 278.800 266.331,278.288 265.968,277.661 265.691 C 275.968 264.942,275.600 263.675,275.600 258.600 C 275.600 253.525,275.968 252.258,277.661 251.509 C 278.288 251.232,278.800 250.869,278.800 250.702 C 278.800 250.536,292.210 250.400,308.600 250.400 C 324.990 250.400,338.400 250.536,338.400 250.702 " stroke="none" fill="#589c00" fill-rule="evenodd"></path><path id="path4" d="M153.384 103.700 C 153.280 103.975,153.240 125.080,153.297 150.600 L 153.400 197.000 199.600 197.110 C 225.010 197.170,246.205 197.122,246.700 197.002 L 247.600 196.785 247.600 150.235 C 247.600 108.157,247.539 103.662,246.967 103.443 C 245.605 102.920,153.585 103.173,153.384 103.700 M206.706 114.717 C 206.794 114.983,207.128 115.200,207.447 115.200 C 208.509 115.200,210.382 117.547,210.648 119.211 C 210.788 120.085,211.059 120.800,211.251 120.800 C 211.443 120.800,211.600 122.780,211.600 125.200 C 211.600 127.620,211.463 129.600,211.295 129.600 C 211.127 129.600,210.767 130.538,210.494 131.684 C 210.222 132.831,209.738 133.915,209.419 134.093 C 209.100 134.272,208.578 134.679,208.259 134.998 C 206.593 136.665,193.933 136.926,192.851 135.316 C 192.713 135.110,192.268 134.819,191.862 134.669 C 191.456 134.519,191.030 134.037,190.915 133.598 C 190.801 133.159,190.563 132.800,190.386 132.800 C 189.816 132.800,189.200 128.852,189.200 125.200 C 189.200 121.595,189.814 117.600,190.369 117.600 C 190.535 117.600,190.877 117.150,191.127 116.600 C 191.378 116.050,191.844 115.600,192.163 115.600 C 192.482 115.600,192.998 115.345,193.310 115.032 C 194.391 113.952,206.357 113.670,206.706 114.717 M230.780 139.633 C 231.891 139.871,232.800 140.210,232.800 140.386 C 232.800 140.563,233.159 140.801,233.598 140.915 C 234.037 141.030,234.519 141.456,234.669 141.862 C 234.819 142.268,235.110 142.713,235.316 142.851 C 236.926 143.933,236.665 156.593,234.998 158.259 C 234.679 158.578,234.272 159.100,234.093 159.419 C 233.915 159.738,232.831 160.222,231.684 160.494 C 230.538 160.767,229.600 161.127,229.600 161.295 C 229.600 161.463,216.370 161.600,200.200 161.600 C 183.739 161.600,170.800 161.446,170.800 161.251 C 170.800 161.059,170.085 160.788,169.211 160.648 C 167.547 160.382,165.200 158.509,165.200 157.447 C 165.200 157.128,164.975 156.792,164.700 156.700 C 163.825 156.408,164.007 144.336,164.900 143.443 C 165.285 143.058,165.600 142.482,165.600 142.163 C 165.600 141.844,166.050 141.378,166.600 141.127 C 167.150 140.877,167.600 140.531,167.600 140.359 C 167.600 139.246,225.852 138.576,230.780 139.633 M206.706 164.717 C 206.794 164.983,207.128 165.200,207.447 165.200 C 208.509 165.200,210.382 167.547,210.648 169.211 C 210.788 170.085,211.059 170.800,211.251 170.800 C 211.443 170.800,211.600 172.780,211.600 175.200 C 211.600 177.620,211.463 179.600,211.295 179.600 C 211.127 179.600,210.767 180.538,210.494 181.684 C 210.222 182.831,209.738 183.915,209.419 184.093 C 209.100 184.272,208.578 184.679,208.259 184.998 C 206.593 186.665,193.933 186.926,192.851 185.316 C 192.713 185.110,192.268 184.819,191.862 184.669 C 191.456 184.519,191.030 184.037,190.915 183.598 C 190.801 183.159,190.563 182.800,190.386 182.800 C 189.816 182.800,189.200 178.852,189.200 175.200 C 189.200 171.595,189.814 167.600,190.369 167.600 C 190.535 167.600,190.877 167.150,191.127 166.600 C 191.378 166.050,191.844 165.600,192.163 165.600 C 192.482 165.600,192.998 165.345,193.310 165.032 C 194.391 163.952,206.357 163.670,206.706 164.717 M44.984 212.100 C 44.880 212.375,44.840 233.480,44.897 259.000 L 45.000 305.400 91.200 305.510 C 116.610 305.570,137.805 305.522,138.300 305.402 L 139.200 305.185 139.200 258.635 C 139.200 216.557,139.139 212.062,138.567 211.843 C 137.205 211.320,45.185 211.573,44.984 212.100 M153.384 212.100 C 153.280 212.375,153.240 233.480,153.297 259.000 L 153.400 305.400 199.600 305.510 C 225.010 305.570,246.205 305.522,246.700 305.402 L 247.600 305.185 247.600 258.635 C 247.600 216.557,247.539 212.062,246.967 211.843 C 245.605 211.320,153.585 211.573,153.384 212.100 M261.785 212.098 C 261.680 212.374,261.640 233.480,261.697 259.000 L 261.800 305.400 308.600 305.400 L 355.400 305.400 355.400 258.600 L 355.400 211.800 308.688 211.698 C 271.529 211.617,261.937 211.699,261.785 212.098 M98.324 223.038 C 98.476 223.262,99.170 223.676,99.866 223.957 C 100.658 224.277,101.323 224.942,101.643 225.734 C 101.924 226.430,102.345 227.128,102.577 227.285 C 102.845 227.466,103.073 231.127,103.200 237.285 L 103.400 247.000 112.300 247.108 C 117.778 247.174,121.200 247.366,121.200 247.608 C 121.200 247.823,121.592 248.000,122.072 248.000 C 123.657 248.000,125.531 248.923,126.069 249.969 C 126.360 250.536,126.747 251.109,126.928 251.241 C 128.337 252.274,128.337 264.926,126.928 265.959 C 126.747 266.091,126.362 266.660,126.073 267.222 C 125.121 269.075,123.767 269.317,113.298 269.502 C 103.750 269.670,103.594 269.686,103.407 270.536 C 103.303 271.011,103.169 275.502,103.109 280.515 C 103.039 286.352,102.848 289.733,102.577 289.915 C 102.345 290.072,101.924 290.770,101.643 291.466 C 101.323 292.258,100.658 292.923,99.866 293.243 C 99.170 293.524,98.472 293.945,98.315 294.177 C 97.900 294.792,86.063 294.749,85.681 294.132 C 85.522 293.874,84.884 293.536,84.264 293.380 C 83.644 293.225,82.942 292.670,82.704 292.149 C 82.466 291.627,82.135 291.200,81.969 291.200 C 81.244 291.200,80.800 286.576,80.800 279.013 C 80.800 274.532,80.691 270.581,80.557 270.233 C 80.346 269.683,79.193 269.600,71.777 269.600 C 59.422 269.600,56.400 268.496,56.400 263.981 C 56.400 263.552,56.220 263.200,56.000 263.200 C 55.757 263.200,55.600 261.400,55.600 258.600 C 55.600 255.800,55.757 254.000,56.000 254.000 C 56.220 254.000,56.400 253.648,56.400 253.219 C 56.400 250.955,58.547 248.514,60.864 248.143 C 61.709 248.008,62.400 247.744,62.400 247.556 C 62.400 247.369,66.495 247.167,71.500 247.108 L 80.600 247.000 80.841 237.400 C 81.068 228.346,81.303 226.000,81.982 226.000 C 82.141 226.000,82.469 225.567,82.710 225.037 C 82.976 224.454,83.632 223.969,84.374 223.806 C 85.048 223.658,85.600 223.383,85.600 223.195 C 85.600 222.385,97.780 222.236,98.324 223.038 M181.528 223.084 C 181.682 223.333,182.306 223.662,182.915 223.814 C 183.523 223.967,184.223 224.476,184.470 224.946 C 184.718 225.416,185.056 225.890,185.222 226.000 C 185.389 226.111,185.767 227.191,186.063 228.400 L 186.600 230.600 188.800 231.137 C 190.009 231.433,191.089 231.811,191.200 231.978 C 191.310 232.144,191.790 232.486,192.267 232.737 C 192.745 232.988,193.254 233.735,193.399 234.397 C 193.545 235.059,193.829 235.600,194.032 235.600 C 194.234 235.600,194.400 235.952,194.400 236.381 C 194.400 238.950,194.920 239.200,200.264 239.200 C 203.035 239.200,205.200 239.037,205.200 238.829 C 205.200 238.624,205.427 238.219,205.704 237.929 C 205.981 237.638,206.442 236.501,206.728 235.402 C 207.015 234.303,207.499 233.264,207.805 233.093 C 208.110 232.922,208.615 232.528,208.925 232.218 C 209.235 231.907,210.459 231.416,211.645 231.127 C 213.693 230.626,213.819 230.520,214.182 229.000 C 214.392 228.120,214.672 227.310,214.805 227.200 C 214.937 227.090,215.276 226.430,215.557 225.734 C 215.877 224.942,216.542 224.277,217.334 223.957 C 218.030 223.676,218.728 223.255,218.885 223.023 C 219.300 222.408,231.137 222.451,231.519 223.068 C 231.678 223.326,232.316 223.664,232.936 223.820 C 233.556 223.975,234.258 224.530,234.496 225.051 C 234.734 225.573,235.065 226.000,235.231 226.000 C 235.786 226.000,236.400 229.995,236.400 233.600 C 236.400 237.205,235.786 241.200,235.231 241.200 C 235.065 241.200,234.731 241.633,234.490 242.163 C 234.224 242.746,233.568 243.231,232.826 243.394 C 232.152 243.542,231.600 243.829,231.600 244.032 C 231.600 244.234,231.248 244.400,230.819 244.400 C 228.941 244.400,228.047 245.246,227.588 247.457 C 227.344 248.635,226.988 249.600,226.799 249.600 C 226.609 249.600,226.335 249.975,226.189 250.434 C 226.044 250.893,225.402 251.450,224.762 251.673 C 224.123 251.896,223.600 252.241,223.600 252.439 C 223.600 252.638,223.158 252.800,222.619 252.800 C 219.837 252.800,219.600 253.256,219.600 258.600 C 219.600 263.944,219.837 264.400,222.619 264.400 C 223.158 264.400,223.600 264.562,223.600 264.761 C 223.600 264.959,224.123 265.304,224.762 265.527 C 225.402 265.750,226.044 266.307,226.189 266.766 C 226.335 267.225,226.609 267.600,226.799 267.600 C 226.988 267.600,227.344 268.565,227.588 269.743 C 228.047 271.954,228.941 272.800,230.819 272.800 C 231.248 272.800,231.600 272.966,231.600 273.168 C 231.600 273.371,232.152 273.658,232.826 273.806 C 233.568 273.969,234.224 274.454,234.490 275.037 C 234.731 275.567,235.065 276.000,235.231 276.000 C 235.786 276.000,236.400 279.995,236.400 283.600 C 236.400 287.205,235.786 291.200,235.231 291.200 C 235.065 291.200,234.734 291.627,234.496 292.149 C 234.258 292.670,233.556 293.225,232.936 293.380 C 232.316 293.536,231.678 293.874,231.519 294.132 C 231.137 294.749,219.300 294.792,218.885 294.177 C 218.728 293.945,218.030 293.524,217.334 293.243 C 216.542 292.923,215.877 292.258,215.557 291.466 C 215.276 290.770,214.937 290.110,214.805 290.000 C 214.672 289.890,214.392 289.080,214.182 288.200 C 213.819 286.680,213.693 286.574,211.645 286.073 C 210.459 285.784,209.235 285.293,208.925 284.982 C 208.615 284.672,208.110 284.278,207.805 284.107 C 207.499 283.936,207.015 282.897,206.728 281.798 C 206.442 280.699,205.981 279.562,205.704 279.271 C 205.427 278.981,205.200 278.576,205.200 278.371 C 205.200 278.163,203.035 278.000,200.264 278.000 C 194.920 278.000,194.400 278.250,194.400 280.819 C 194.400 281.248,194.234 281.600,194.032 281.600 C 193.829 281.600,193.545 282.141,193.399 282.803 C 193.254 283.465,192.745 284.212,192.267 284.463 C 191.790 284.714,191.310 285.056,191.200 285.222 C 191.089 285.389,190.009 285.767,188.800 286.063 L 186.600 286.600 186.063 288.800 C 185.767 290.009,185.389 291.089,185.222 291.200 C 185.056 291.310,184.718 291.784,184.470 292.254 C 184.223 292.724,183.523 293.233,182.915 293.386 C 182.306 293.538,181.678 293.874,181.519 294.132 C 181.137 294.749,169.300 294.792,168.885 294.177 C 168.728 293.945,168.030 293.524,167.334 293.243 C 166.542 292.923,165.877 292.258,165.557 291.466 C 165.276 290.770,164.855 290.072,164.623 289.915 C 164.357 289.735,164.200 287.389,164.200 283.600 C 164.200 279.811,164.357 277.465,164.623 277.285 C 164.855 277.128,165.276 276.430,165.557 275.734 C 165.877 274.942,166.542 274.277,167.334 273.957 C 168.030 273.676,168.690 273.337,168.800 273.205 C 168.910 273.072,169.720 272.792,170.600 272.582 C 172.033 272.240,172.240 272.033,172.582 270.600 C 172.792 269.720,173.072 268.910,173.205 268.800 C 173.337 268.690,173.676 268.030,173.957 267.334 C 174.277 266.542,174.942 265.877,175.734 265.557 C 176.430 265.276,177.090 264.937,177.200 264.805 C 177.310 264.672,178.120 264.392,179.000 264.182 L 180.600 263.800 180.600 258.600 L 180.600 253.400 179.000 253.018 C 178.120 252.808,177.310 252.528,177.200 252.395 C 177.090 252.263,176.430 251.924,175.734 251.643 C 174.942 251.323,174.277 250.658,173.957 249.866 C 173.676 249.170,173.337 248.510,173.205 248.400 C 173.072 248.290,172.792 247.480,172.582 246.600 C 172.240 245.167,172.033 244.960,170.600 244.618 C 169.720 244.408,168.910 244.128,168.800 243.995 C 168.690 243.863,168.030 243.524,167.334 243.243 C 166.542 242.923,165.877 242.258,165.557 241.466 C 165.276 240.770,164.855 240.072,164.623 239.915 C 164.357 239.735,164.200 237.389,164.200 233.600 C 164.200 229.811,164.357 227.465,164.623 227.285 C 164.855 227.128,165.280 226.419,165.567 225.710 C 165.922 224.832,166.523 224.263,167.444 223.929 C 168.190 223.660,168.800 223.307,168.800 223.146 C 168.800 222.337,181.029 222.277,181.528 223.084 M338.000 247.549 C 338.000 247.741,338.689 248.008,339.530 248.142 C 341.089 248.392,343.200 249.854,343.200 250.684 C 343.200 250.936,343.515 251.458,343.900 251.843 C 344.505 252.448,344.600 253.365,344.600 258.600 C 344.600 263.835,344.505 264.752,343.900 265.357 C 343.515 265.742,343.200 266.274,343.200 266.540 C 343.200 269.394,340.871 269.600,308.600 269.600 C 276.329 269.600,274.000 269.394,274.000 266.540 C 274.000 266.274,273.685 265.742,273.300 265.357 C 272.695 264.752,272.600 263.835,272.600 258.600 C 272.600 253.365,272.695 252.448,273.300 251.843 C 273.685 251.458,274.000 250.936,274.000 250.684 C 274.000 249.854,276.111 248.392,277.670 248.142 C 278.511 248.008,279.200 247.741,279.200 247.549 C 279.200 247.354,292.139 247.200,308.600 247.200 C 325.061 247.200,338.000 247.354,338.000 247.549 " stroke="none" fill="#8efa00" fill-rule="evenodd"></path></g></svg>