<svg id="svg" version="1.1" width="400" height="400" viewBox="0 0 400 400" xmlns="http://www.w3.org/2000/svg" xmlns:xlink="http://www.w3.org/1999/xlink" ><g id="svgg"><path id="path0" d="M145.234 92.300 C 144.246 93.044,143.376 93.892,142.400 95.061 C 141.876 95.689,141.775 102.218,141.600 146.652 L 141.400 197.523 140.200 198.662 L 139.000 199.800 88.200 200.000 C 32.280 200.220,37.027 200.012,35.051 202.329 C 34.803 202.619,34.285 203.204,33.900 203.629 C 32.814 204.826,32.814 312.374,33.900 313.571 C 34.285 313.996,34.799 314.581,35.042 314.871 C 35.285 315.162,35.999 315.805,36.629 316.300 L 37.774 317.200 200.353 317.200 C 342.004 317.200,363.014 317.125,363.566 316.619 C 363.915 316.299,364.613 315.624,365.119 315.119 C 365.624 314.613,366.299 313.915,366.619 313.566 C 367.496 312.610,367.496 204.590,366.619 203.634 C 365.582 202.505,364.474 201.414,363.739 200.800 C 363.111 200.276,356.589 200.175,312.210 200.000 L 261.400 199.800 260.200 198.600 L 259.000 197.400 258.800 146.600 C 258.680 116.030,258.451 95.568,258.225 95.217 C 257.425 93.973,256.234 92.800,255.771 92.800 C 255.504 92.800,255.182 92.530,255.055 92.200 C 254.672 91.202,146.561 91.300,145.234 92.300 M247.434 102.888 L 248.800 104.176 248.800 150.212 L 248.800 196.248 247.553 197.524 L 246.305 198.800 200.293 198.800 L 154.281 198.800 152.940 197.420 L 151.600 196.040 151.600 150.208 L 151.600 104.377 152.900 103.016 L 154.200 101.655 200.134 101.627 L 246.069 101.600 247.434 102.888 M194.477 115.858 C 194.190 115.981,193.530 116.507,193.010 117.026 C 190.884 119.152,190.800 119.460,190.800 125.115 C 190.800 130.825,190.952 131.413,192.935 133.396 L 194.138 134.600 200.254 134.600 L 206.369 134.600 207.684 133.129 C 208.408 132.320,209.225 131.383,209.500 131.046 C 209.843 130.626,210.000 128.798,210.000 125.221 C 210.000 119.596,210.082 119.854,207.417 117.047 L 206.234 115.800 200.617 115.717 C 197.528 115.671,194.765 115.735,194.477 115.858 M168.874 141.433 C 165.817 143.574,165.800 143.623,165.800 150.216 L 165.800 156.231 167.047 157.416 C 170.038 160.258,166.731 160.000,200.221 160.000 C 223.798 160.000,230.568 159.890,231.046 159.500 C 231.383 159.225,232.320 158.408,233.129 157.684 L 234.600 156.369 234.600 150.254 L 234.600 144.138 233.396 142.935 C 231.167 140.705,232.647 140.800,200.115 140.800 C 173.089 140.800,169.679 140.869,168.874 141.433 M194.477 165.858 C 194.190 165.981,193.530 166.507,193.010 167.026 C 190.884 169.152,190.800 169.460,190.800 175.115 C 190.800 180.825,190.952 181.413,192.935 183.396 L 194.138 184.600 200.254 184.600 L 206.369 184.600 207.684 183.129 C 208.408 182.320,209.225 181.383,209.500 181.046 C 209.843 180.626,210.000 178.798,210.000 175.221 C 210.000 169.596,210.082 169.854,207.417 167.047 L 206.234 165.800 200.617 165.717 C 197.528 165.671,194.765 165.735,194.477 165.858 M139.317 211.399 L 140.800 212.798 140.800 258.600 L 140.800 304.402 139.317 305.801 L 137.833 307.200 91.945 307.200 L 46.057 307.200 44.628 305.853 L 43.200 304.506 43.200 258.600 L 43.200 212.694 44.628 211.347 L 46.057 210.000 91.945 210.000 L 137.833 210.000 139.317 211.399 M247.553 211.276 L 248.800 212.552 248.800 258.600 L 248.800 304.648 247.553 305.924 L 246.305 307.200 200.293 307.200 L 154.281 307.200 152.940 305.820 L 151.600 304.440 151.600 258.609 L 151.600 212.778 152.900 211.397 L 154.200 210.015 200.253 210.007 L 246.305 210.000 247.553 211.276 M355.900 211.347 L 357.200 212.685 357.200 258.600 L 357.200 304.515 355.900 305.853 L 354.600 307.191 308.643 307.196 L 262.685 307.200 261.347 305.900 L 260.009 304.600 260.004 258.643 L 260.000 212.685 261.300 211.347 L 262.600 210.009 308.600 210.009 L 354.600 210.009 355.900 211.347 M85.154 225.194 C 84.409 225.850,83.694 226.390,83.564 226.394 C 82.687 226.417,82.400 229.086,82.400 237.205 L 82.400 245.973 80.987 247.387 L 79.573 248.800 70.587 248.800 C 64.862 248.800,61.600 248.945,61.600 249.200 C 61.600 249.420,61.351 249.600,61.047 249.600 C 60.352 249.600,58.000 251.974,58.000 252.676 C 58.000 252.964,57.820 253.200,57.600 253.200 C 57.353 253.200,57.200 255.267,57.200 258.600 C 57.200 261.933,57.353 264.000,57.600 264.000 C 57.820 264.000,58.000 264.236,58.000 264.524 C 58.000 265.226,60.352 267.600,61.047 267.600 C 61.351 267.600,61.600 267.780,61.600 268.000 C 61.600 268.255,64.871 268.400,70.613 268.400 L 79.627 268.400 81.013 269.787 L 82.400 271.173 82.400 279.968 C 82.400 288.113,82.687 290.783,83.564 290.806 C 83.694 290.810,84.409 291.350,85.154 292.006 L 86.508 293.200 92.038 293.200 L 97.568 293.200 99.584 291.216 L 101.600 289.231 101.600 280.181 L 101.600 271.131 102.888 269.766 L 104.176 268.400 113.288 268.400 C 119.096 268.400,122.400 268.255,122.400 268.000 C 122.400 267.780,122.625 267.598,122.900 267.596 C 123.175 267.593,124.030 266.943,124.800 266.151 L 126.200 264.710 126.200 258.600 L 126.200 252.490 124.800 251.049 C 124.030 250.257,123.175 249.607,122.900 249.604 C 122.625 249.602,122.400 249.420,122.400 249.200 C 122.400 248.945,119.113 248.800,113.340 248.800 L 104.281 248.800 102.940 247.420 L 101.600 246.040 101.600 237.004 L 101.600 227.969 99.584 225.984 L 97.568 224.000 92.038 224.000 L 86.508 224.000 85.154 225.194 M167.616 225.984 L 165.600 227.969 165.600 233.600 L 165.600 239.231 167.616 241.216 C 168.725 242.307,169.958 243.200,170.357 243.200 C 171.357 243.200,173.574 245.405,174.105 246.929 C 174.647 248.483,177.740 251.600,178.741 251.600 C 179.146 251.600,180.135 252.239,180.939 253.019 L 182.400 254.439 182.400 258.600 L 182.400 262.761 180.939 264.181 C 180.135 264.961,179.138 265.600,178.723 265.600 C 177.755 265.600,174.000 269.397,174.000 270.376 C 174.000 271.341,171.341 274.000,170.376 274.000 C 169.967 274.000,168.725 274.893,167.616 275.984 L 165.600 277.969 165.600 283.600 L 165.600 289.231 167.616 291.216 L 169.632 293.200 175.155 293.200 C 181.113 293.200,180.461 293.389,183.489 290.788 C 183.979 290.367,184.502 289.523,184.652 288.912 C 185.005 287.479,187.479 285.005,188.912 284.652 C 189.523 284.502,190.367 283.979,190.788 283.489 C 191.208 283.000,191.922 282.167,192.376 281.639 C 192.829 281.110,193.200 280.407,193.200 280.076 C 193.200 279.746,193.906 278.783,194.769 277.938 L 196.337 276.400 200.369 276.400 L 204.402 276.400 205.801 277.883 C 206.570 278.699,207.200 279.607,207.200 279.900 C 207.200 280.194,207.425 280.709,207.700 281.046 C 209.566 283.330,210.747 284.378,211.730 284.622 C 213.112 284.964,215.600 287.443,215.600 288.477 C 215.600 288.892,216.507 290.124,217.616 291.216 L 219.632 293.200 225.162 293.200 L 230.692 293.200 232.046 292.006 C 232.791 291.350,233.506 290.810,233.636 290.806 C 234.390 290.786,234.800 288.246,234.800 283.600 C 234.800 278.954,234.390 276.414,233.636 276.394 C 233.506 276.390,232.791 275.850,232.046 275.194 C 231.301 274.537,230.418 274.000,230.083 274.000 C 229.237 274.000,226.589 271.212,226.285 270.000 C 225.936 268.613,223.450 266.077,222.111 265.744 C 221.500 265.592,220.415 264.918,219.700 264.246 L 218.400 263.024 218.400 258.600 L 218.400 254.176 219.700 252.954 C 220.415 252.282,221.500 251.608,222.111 251.456 C 223.450 251.122,225.842 248.684,226.190 247.296 C 226.495 246.084,229.235 243.200,230.083 243.200 C 230.418 243.200,231.301 242.663,232.046 242.006 C 232.791 241.350,233.506 240.810,233.636 240.806 C 234.390 240.786,234.800 238.246,234.800 233.600 C 234.800 228.954,234.390 226.414,233.636 226.394 C 233.506 226.390,232.791 225.850,232.046 225.194 L 230.692 224.000 225.162 224.000 L 219.632 224.000 217.616 225.984 C 216.507 227.076,215.600 228.308,215.600 228.723 C 215.600 229.757,213.112 232.236,211.730 232.578 C 210.747 232.822,209.566 233.870,207.700 236.154 C 207.425 236.491,207.200 237.006,207.200 237.300 C 207.200 237.593,206.570 238.501,205.801 239.317 L 204.402 240.800 200.369 240.800 L 196.337 240.800 194.769 239.262 C 193.906 238.417,193.200 237.454,193.200 237.124 C 193.200 236.793,192.829 236.090,192.376 235.561 C 191.922 235.033,191.208 234.200,190.788 233.711 C 190.367 233.221,189.523 232.698,188.912 232.548 C 187.479 232.195,185.005 229.721,184.652 228.288 C 184.502 227.677,183.979 226.833,183.489 226.412 C 180.461 223.811,181.113 224.000,175.155 224.000 L 169.632 224.000 167.616 225.984 M277.687 249.320 C 277.404 249.584,276.504 250.430,275.687 251.200 L 274.200 252.600 274.200 258.600 L 274.200 264.600 275.678 266.000 C 276.491 266.770,277.429 267.625,277.761 267.900 C 278.233 268.290,285.002 268.400,308.600 268.400 C 332.198 268.400,338.967 268.290,339.439 267.900 C 339.771 267.625,340.709 266.770,341.522 266.000 L 343.000 264.600 343.000 258.600 L 343.000 252.600 341.522 251.200 C 340.709 250.430,339.771 249.575,339.439 249.300 C 338.577 248.588,278.449 248.607,277.687 249.320 " stroke="none" fill="#000000" fill-rule="evenodd"></path><path id="path1" d="M0.000 200.000 L 0.000 400.000 200.000 400.000 L 400.000 400.000 400.000 200.000 L 400.000 0.000 200.000 0.000 L 0.000 0.000 0.000 200.000 M255.055 92.200 C 255.182 92.530,255.504 92.800,255.771 92.800 C 256.234 92.800,257.425 93.973,258.225 95.217 C 258.451 95.568,258.680 116.030,258.800 146.600 L 259.000 197.400 260.200 198.600 L 261.400 199.800 312.210 200.000 C 356.589 200.175,363.111 200.276,363.739 200.800 C 364.474 201.414,365.582 202.505,366.619 203.634 C 367.496 204.590,367.496 312.610,366.619 313.566 C 365.873 314.379,364.379 315.873,363.566 316.619 C 363.014 317.125,342.004 317.200,200.353 317.200 L 37.774 317.200 36.629 316.300 C 35.999 315.805,35.285 315.162,35.042 314.871 C 34.799 314.581,34.285 313.996,33.900 313.571 C 32.814 312.374,32.814 204.826,33.900 203.629 C 34.285 203.204,34.803 202.619,35.051 202.329 C 37.027 200.012,32.280 200.220,88.200 200.000 L 139.000 199.800 140.200 198.662 L 141.400 197.523 141.600 146.652 C 141.814 92.157,141.677 95.704,143.653 93.671 C 145.832 91.429,141.134 91.600,200.494 91.600 C 248.419 91.600,254.852 91.671,255.055 92.200 M152.900 103.016 L 151.600 104.377 151.600 150.208 L 151.600 196.040 152.940 197.420 L 154.281 198.800 200.293 198.800 L 246.305 198.800 247.553 197.524 L 248.800 196.248 248.800 150.212 L 248.800 104.176 247.434 102.888 L 246.069 101.600 200.134 101.627 L 154.200 101.655 152.900 103.016 M207.417 117.047 C 210.082 119.854,210.000 119.596,210.000 125.221 C 210.000 128.798,209.843 130.626,209.500 131.046 C 209.225 131.383,208.408 132.320,207.684 133.129 L 206.369 134.600 200.254 134.600 L 194.138 134.600 192.935 133.396 C 190.952 131.413,190.800 130.825,190.800 125.115 C 190.800 119.460,190.884 119.152,193.010 117.026 C 194.392 115.644,194.496 115.626,200.617 115.717 L 206.234 115.800 207.417 117.047 M231.323 141.266 C 231.801 141.522,232.735 142.273,233.396 142.935 L 234.600 144.138 234.600 150.254 L 234.600 156.369 233.129 157.684 C 232.320 158.408,231.383 159.225,231.046 159.500 C 230.568 159.890,223.798 160.000,200.221 160.000 C 166.731 160.000,170.038 160.258,167.047 157.416 L 165.800 156.231 165.800 150.216 C 165.800 143.623,165.817 143.574,168.874 141.433 C 170.043 140.615,229.807 140.454,231.323 141.266 M207.417 167.047 C 210.082 169.854,210.000 169.596,210.000 175.221 C 210.000 178.798,209.843 180.626,209.500 181.046 C 209.225 181.383,208.408 182.320,207.684 183.129 L 206.369 184.600 200.254 184.600 L 194.138 184.600 192.935 183.396 C 190.952 181.413,190.800 180.825,190.800 175.115 C 190.800 169.460,190.884 169.152,193.010 167.026 C 194.392 165.644,194.496 165.626,200.617 165.717 L 206.234 165.800 207.417 167.047 M44.628 211.347 L 43.200 212.694 43.200 258.600 L 43.200 304.506 44.628 305.853 L 46.057 307.200 91.945 307.200 L 137.833 307.200 139.317 305.801 L 140.800 304.402 140.800 258.600 L 140.800 212.798 139.317 211.399 L 137.833 210.000 91.945 210.000 L 46.057 210.000 44.628 211.347 M152.900 211.397 L 151.600 212.778 151.600 258.609 L 151.600 304.440 152.940 305.820 L 154.281 307.200 200.293 307.200 L 246.305 307.200 247.553 305.924 L 248.800 304.648 248.800 258.600 L 248.800 212.552 247.553 211.276 L 246.305 210.000 200.253 210.007 L 154.200 210.015 152.900 211.397 M261.300 211.347 L 260.000 212.685 260.004 258.643 L 260.009 304.600 261.347 305.900 L 262.685 307.200 308.643 307.196 L 354.600 307.191 355.900 305.853 L 357.200 304.515 357.200 258.600 L 357.200 212.685 355.900 211.347 L 354.600 210.009 308.600 210.009 L 262.600 210.009 261.300 211.347 M99.584 225.984 L 101.600 227.969 101.600 237.004 L 101.600 246.040 102.940 247.420 L 104.281 248.800 113.340 248.800 C 119.113 248.800,122.400 248.945,122.400 249.200 C 122.400 249.420,122.625 249.602,122.900 249.604 C 123.175 249.607,124.030 250.257,124.800 251.049 L 126.200 252.490 126.200 258.600 L 126.200 264.710 124.800 266.151 C 124.030 266.943,123.175 267.593,122.900 267.596 C 122.625 267.598,122.400 267.780,122.400 268.000 C 122.400 268.255,119.096 268.400,113.288 268.400 L 104.176 268.400 102.888 269.766 L 101.600 271.131 101.600 280.181 L 101.600 289.231 99.584 291.216 L 97.568 293.200 92.038 293.200 L 86.508 293.200 85.154 292.006 C 84.409 291.350,83.694 290.810,83.564 290.806 C 82.687 290.783,82.400 288.113,82.400 279.968 L 82.400 271.173 81.013 269.787 L 79.627 268.400 70.613 268.400 C 64.871 268.400,61.600 268.255,61.600 268.000 C 61.600 267.780,61.351 267.600,61.047 267.600 C 60.352 267.600,58.000 265.226,58.000 264.524 C 58.000 264.236,57.820 264.000,57.600 264.000 C 57.353 264.000,57.200 261.933,57.200 258.600 C 57.200 255.267,57.353 253.200,57.600 253.200 C 57.820 253.200,58.000 252.964,58.000 252.676 C 58.000 251.974,60.352 249.600,61.047 249.600 C 61.351 249.600,61.600 249.420,61.600 249.200 C 61.600 248.945,64.862 248.800,70.587 248.800 L 79.573 248.800 80.987 247.387 L 82.400 245.973 82.400 237.205 C 82.400 229.086,82.687 226.417,83.564 226.394 C 83.694 226.390,84.409 225.850,85.154 225.194 L 86.508 224.000 92.038 224.000 L 97.568 224.000 99.584 225.984 M181.639 224.824 C 182.167 225.278,183.000 225.992,183.489 226.412 C 183.979 226.833,184.502 227.677,184.652 228.288 C 185.005 229.721,187.479 232.195,188.912 232.548 C 189.523 232.698,190.367 233.221,190.788 233.711 C 191.208 234.200,191.922 235.033,192.376 235.561 C 192.829 236.090,193.200 236.793,193.200 237.124 C 193.200 237.454,193.906 238.417,194.769 239.262 L 196.337 240.800 200.369 240.800 L 204.402 240.800 205.801 239.317 C 206.570 238.501,207.200 237.593,207.200 237.300 C 207.200 237.006,207.425 236.491,207.700 236.154 C 209.566 233.870,210.747 232.822,211.730 232.578 C 213.112 232.236,215.600 229.757,215.600 228.723 C 215.600 228.308,216.507 227.076,217.616 225.984 L 219.632 224.000 225.162 224.000 L 230.692 224.000 232.046 225.194 C 232.791 225.850,233.506 226.390,233.636 226.394 C 234.390 226.414,234.800 228.954,234.800 233.600 C 234.800 238.246,234.390 240.786,233.636 240.806 C 233.506 240.810,232.791 241.350,232.046 242.006 C 231.301 242.663,230.418 243.200,230.083 243.200 C 229.235 243.200,226.495 246.084,226.190 247.296 C 225.842 248.684,223.450 251.122,222.111 251.456 C 221.500 251.608,220.415 252.282,219.700 252.954 L 218.400 254.176 218.400 258.600 L 218.400 263.024 219.700 264.246 C 220.415 264.918,221.500 265.592,222.111 265.744 C 223.450 266.077,225.936 268.613,226.285 270.000 C 226.589 271.212,229.237 274.000,230.083 274.000 C 230.418 274.000,231.301 274.537,232.046 275.194 C 232.791 275.850,233.506 276.390,233.636 276.394 C 234.390 276.414,234.800 278.954,234.800 283.600 C 234.800 288.246,234.390 290.786,233.636 290.806 C 233.506 290.810,232.791 291.350,232.046 292.006 L 230.692 293.200 225.162 293.200 L 219.632 293.200 217.616 291.216 C 216.507 290.124,215.600 288.892,215.600 288.477 C 215.600 287.443,213.112 284.964,211.730 284.622 C 210.747 284.378,209.566 283.330,207.700 281.046 C 207.425 280.709,207.200 280.194,207.200 279.900 C 207.200 279.607,206.570 278.699,205.801 277.883 L 204.402 276.400 200.369 276.400 L 196.337 276.400 194.769 277.938 C 193.906 278.783,193.200 279.746,193.200 280.076 C 193.200 280.407,192.829 281.110,192.376 281.639 C 191.922 282.167,191.208 283.000,190.788 283.489 C 190.367 283.979,189.523 284.502,188.912 284.652 C 187.479 285.005,185.005 287.479,184.652 288.912 C 184.502 289.523,183.979 290.367,183.489 290.788 C 180.461 293.389,181.113 293.200,175.155 293.200 L 169.632 293.200 167.616 291.216 L 165.600 289.231 165.600 283.600 L 165.600 277.969 167.616 275.984 C 168.725 274.893,169.967 274.000,170.376 274.000 C 171.341 274.000,174.000 271.341,174.000 270.376 C 174.000 269.397,177.755 265.600,178.723 265.600 C 179.138 265.600,180.135 264.961,180.939 264.181 L 182.400 262.761 182.400 258.600 L 182.400 254.439 180.939 253.019 C 180.135 252.239,179.146 251.600,178.741 251.600 C 177.740 251.600,174.647 248.483,174.105 246.929 C 173.574 245.405,171.357 243.200,170.357 243.200 C 169.958 243.200,168.725 242.307,167.616 241.216 L 165.600 239.231 165.600 233.600 L 165.600 227.969 167.616 225.984 L 169.632 224.000 175.155 224.000 C 180.154 224.000,180.769 224.078,181.639 224.824 M339.439 249.300 C 339.771 249.575,340.709 250.430,341.522 251.200 L 343.000 252.600 343.000 258.600 L 343.000 264.600 341.522 266.000 C 340.709 266.770,339.771 267.625,339.439 267.900 C 338.967 268.290,332.198 268.400,308.600 268.400 C 285.002 268.400,278.233 268.290,277.761 267.900 C 277.429 267.625,276.491 266.770,275.678 266.000 L 274.200 264.600 274.200 258.600 L 274.200 252.600 275.687 251.200 C 276.504 250.430,277.404 249.584,277.687 249.320 C 278.449 248.607,338.577 248.588,339.439 249.300 " stroke="none" fill="#ffffff" fill-rule="evenodd"></path></g></svg>