<?xml version="1.0" ?><!-- Generator: Adobe Illustrator 21.0.2, SVG Export Plug-In . SVG Version: 6.00 Build 0)  --><!DOCTYPE svg  PUBLIC '-//W3C//DTD SVG 1.1//EN'  'http://www.w3.org/Graphics/SVG/1.1/DTD/svg11.dtd' [
	<!ENTITY stroke_color "#666666">
	<!ENTITY fill_color "#ffffff">
]><svg id="svg" style="enable-background:new 0 0 400 400;" version="1.1" viewBox="0 0 400 400" x="0px" xml:space="preserve" xmlns="http://www.w3.org/2000/svg" xmlns:xlink="http://www.w3.org/1999/xlink" y="0px">
<path d="M145.6,95.2c-0.5,0.3-0.6,6.7-0.8,51.8c-0.2,38.7-0.3,51.5-0.7,51.7c-0.3,0.2-0.6,0.8-0.8,1.4  c-0.2,0.7-0.7,1.3-1.3,1.5c-0.6,0.2-1.2,0.6-1.3,0.9c-0.2,0.4-12.7,0.5-51.8,0.7c-28.3,0.1-51.7,0.3-52,0.5  c-1,0.6-0.7,109.3,0.3,109.9c1.2,0.6,325.7,0.6,326.3-0.1c0.7-0.7,0.7-109.2-0.1-109.9c-0.4-0.3-15-0.5-51.8-0.5  c-35.5-0.1-51.4-0.2-51.6-0.5c-0.2-0.2-0.9-0.7-1.6-0.9c-1.1-0.4-1.4-0.9-1.8-2.5c-0.3-1.1-0.6-2-0.8-2c-0.2,0-0.3-22.7-0.3-50.4  c0-34-0.1-50.7-0.4-51.2C254.7,94.7,147,94.3,145.6,95.2 M249.8,98.9c0.3,0.4,0.7,0.7,0.9,0.7c0.4,0,1.3,1.7,1.3,2.6  c0,0.3,0.2,0.6,0.4,0.6c0.3,0,0.4,16.1,0.4,47.6s-0.1,47.6-0.4,47.6c-0.2,0-0.4,0.2-0.4,0.5c0,1.6-1.9,3.5-3.5,3.5  c-0.3,0-0.5,0.2-0.5,0.4c0,0.3-16.1,0.4-47.6,0.4s-47.6-0.1-47.6-0.4c0-0.2-0.3-0.4-0.6-0.4c-0.9,0-2.6-0.9-2.6-1.3  c0-0.2-0.3-0.6-0.7-0.9c-0.7-0.5-1.4-92.1-0.7-96.9c0.3-1.9,2-4,3.7-4.5C154.4,97.6,249.2,98.1,249.8,98.9 M195.2,120.1  c-1.2,1.3-1.2,9.1,0,10.3c1.3,1.3,9.1,1.2,10.3-0.2c1.4-1.6,1.3-8.5-0.1-10C204.1,118.8,196.5,118.6,195.2,120.1 M170.1,145.2  c-1.4,1.3-1.3,8.9,0.1,10.2l1,0.9h29h29l1-0.9c1.4-1.2,1.5-9,0.2-10.3C229.1,143.9,171.4,143.9,170.1,145.2 M195.2,170.1  c-1.2,1.3-1.2,9.1,0,10.3c1.3,1.3,9.1,1.2,10.3-0.2c1.4-1.6,1.3-8.5-0.1-10C204.1,168.8,196.5,168.6,195.2,170.1 M141.4,207.3  c0.3,0.4,0.7,0.7,0.8,0.7c0.5,0,1.4,1.3,1.4,2.1c0,0.4,0.2,0.7,0.4,0.7c0.3,0,0.4,16.2,0.4,47.8s-0.1,47.8-0.4,47.8  c-0.2,0-0.4,0.3-0.4,0.7c0,0.8-0.9,2.1-1.4,2.1c-0.2,0-0.5,0.3-0.8,0.7c-0.5,0.7-3.3,0.7-47.8,0.8c-52.7,0.1-50.1,0.2-52.2-1.8  l-1.5-1.5v-48.8v-48.8l1.3-1.3c0.7-0.7,1.8-1.5,2.4-1.7C46,206,140.8,206.5,141.4,207.3 M249.8,207.3c0.3,0.4,0.7,0.7,0.8,0.7  c0.5,0,1.4,1.3,1.4,2.1c0,0.4,0.2,0.7,0.4,0.7c0.3,0,0.4,16.2,0.4,47.8s-0.1,47.8-0.4,47.8c-0.2,0-0.4,0.3-0.4,0.7  c0,0.8-0.9,2.1-1.4,2.1c-0.2,0-0.5,0.3-0.8,0.7c-0.5,0.7-3.3,0.7-47.8,0.8c-52.4,0.1-50.1,0.2-52.2-1.8l-1.5-1.4v-48.9v-48.9  l1.3-1.3c0.7-0.7,1.8-1.4,2.4-1.6C154.4,206,249.2,206.5,249.8,207.3 M359,208.2l1.6,1.6v48.9v48.9L359,309l-1.6,1.6h-48.9h-48.9  l-1.6-1.6l-1.6-1.6v-48.9v-48.9l1.4-1.4c2-2-1.9-1.8,51.2-1.8l48.2,0.1L359,208.2 M86.8,228.4c-0.7,0.8-0.8,1.5-0.9,10.8  c-0.1,9-0.2,10-0.8,10.4c-0.4,0.2-0.7,0.6-0.7,0.9c0,0.5-1.8,1.5-2.7,1.5c-0.3,0-0.5,0.2-0.5,0.4c0,0.3-3.4,0.4-9.3,0.4  c-11.7,0-11.1-0.3-11.1,5.8c0,6.1-0.6,5.8,11.1,5.8c5.9,0,9.3,0.2,9.3,0.4c0,0.2,0.2,0.4,0.5,0.4c0.9,0,2.7,1,2.7,1.5  c0,0.3,0.3,0.7,0.7,0.9c0.6,0.4,0.7,1.4,0.8,10.4c0.2,12.4-0.2,11.7,6,11.7c6.3,0,6,0.6,6.2-11.8c0.1-8.9,0.2-10,0.8-10.4  c0.4-0.3,0.7-0.7,0.7-0.9c0-0.4,1.7-1.3,2.6-1.3c0.3,0,0.6-0.2,0.6-0.4c0-0.3,3.3-0.4,9.1-0.4c11.6,0,10.9,0.4,10.9-5.8  c0-6.2,0.7-5.8-10.9-5.8c-5.8,0-9.1-0.1-9.1-0.4c0-0.2-0.3-0.4-0.6-0.4c-0.9,0-2.6-0.9-2.6-1.3c0-0.2-0.3-0.6-0.7-0.9  c-0.6-0.5-0.7-1.5-0.8-10.4c-0.2-12.4,0.2-11.7-6.2-11.8C88.1,227.6,87.6,227.7,86.8,228.4 M170.1,228.6c-0.8,0.9-0.9,1.3-0.9,5.1  c0,4.7,0.5,5.6,3.4,6.1c0.9,0.2,1.8,0.5,2.1,0.8c2.2,1.9,2.5,2.4,2.8,4.1c0.4,2,1.7,3.2,3.8,3.5c0.9,0.2,1.7,0.5,1.9,0.8  c0.1,0.3,0.5,0.6,0.8,0.6c0.3,0,0.6,0.2,0.6,0.4c0,0.2,0.3,0.7,0.7,1.1c0.6,0.6,0.7,1.6,0.7,7.6c0,6-0.1,6.9-0.7,7.6  c-0.4,0.4-0.7,0.9-0.7,1.1c0,0.2-0.3,0.4-0.6,0.4c-0.3,0-0.7,0.3-0.8,0.6c-0.1,0.3-1,0.7-1.9,0.9c-2.1,0.4-3.3,1.5-3.7,3.5  c-0.3,1.7-0.6,2.2-2.8,4.1c-0.3,0.3-1.2,0.6-2.1,0.8c-2.9,0.5-3.3,1.4-3.3,6.2c0,5.8,0.3,6,6.1,6c4.9,0,5.6-0.4,6-3.4  c0.1-1,0.5-1.8,0.8-2c0.3-0.1,0.6-0.5,0.6-0.8c0-0.3,0.3-0.6,0.6-0.6c0.3,0,0.7-0.3,0.8-0.6c0.1-0.3,1-0.7,2-0.8  c2.3-0.3,3.2-1.3,3.6-3.5c0.2-1,0.5-1.9,0.9-2c0.3-0.1,0.6-0.5,0.6-0.8c0-0.6,1.6-1.5,2.6-1.5c0.3,0,0.6-0.2,0.6-0.4  c0-0.2,2.3-0.4,6-0.4c3.7,0,6,0.2,6,0.4c0,0.2,0.3,0.4,0.7,0.4c0.8,0,2.1,0.9,2.1,1.5c0,0.2,0.3,0.5,0.6,0.6c0.3,0.1,0.7,1,0.8,1.9  c0.4,2.3,1.5,3.4,3.6,3.8c1,0.1,1.8,0.4,1.8,0.6c0,0.2,0.4,0.5,0.8,0.6c0.4,0.1,0.8,0.5,0.8,0.8c0,0.3,0.3,0.6,0.6,0.7  c0.3,0.1,0.7,1,0.9,1.9c0.5,3.1,1.3,3.5,6.3,3.5c5.8,0,5.9-0.1,5.9-6c0-5-0.4-5.7-3.3-6.2c-1-0.1-1.9-0.5-2-0.9  c-0.1-0.3-0.5-0.6-0.8-0.6c-0.6,0-1.5-1.6-1.5-2.6c0-0.3-0.2-0.6-0.4-0.6s-0.4-0.4-0.4-0.9c0-1.4-1.3-2.5-3.4-2.9  c-1-0.2-2-0.5-2.1-0.9c-0.1-0.3-0.4-0.6-0.7-0.6c-0.5,0-1.4-1.7-1.4-2.6c0-0.3-0.2-0.6-0.4-0.6c-0.2,0-0.4-2.2-0.4-5.8  c0-3.6,0.2-5.8,0.4-5.8c0.2,0,0.4-0.3,0.4-0.6c0-1,0.9-2.6,1.4-2.6c0.3,0,0.6-0.3,0.7-0.6c0.1-0.3,1-0.7,1.9-0.8  c2-0.3,3.6-1.6,3.6-2.9c0-0.5,0.2-0.9,0.4-0.9s0.4-0.3,0.4-0.6c0-1,0.9-2.6,1.5-2.6c0.3,0,0.6-0.3,0.8-0.6c0.1-0.3,1-0.7,2-0.9  c2.9-0.4,3.3-1.2,3.3-6.2c0-5.9-0.1-6-5.9-6c-5,0-5.8,0.5-6.3,3.5c-0.2,0.9-0.5,1.8-0.9,1.9c-0.3,0.1-0.6,0.5-0.6,0.7  c0,0.3-0.4,0.6-0.8,0.8s-0.8,0.4-0.8,0.6c0,0.2-0.8,0.5-1.8,0.6c-2.1,0.3-3.2,1.5-3.6,3.8c-0.2,0.9-0.5,1.8-0.8,1.9  c-0.3,0.1-0.6,0.4-0.6,0.6c0,0.6-1.3,1.5-2.1,1.5c-0.4,0-0.7,0.2-0.7,0.4c0,0.2-2.3,0.4-6,0.4c-3.7,0-6-0.2-6-0.4  c0-0.2-0.3-0.4-0.6-0.4c-1,0-2.6-0.9-2.6-1.5c0-0.3-0.3-0.6-0.6-0.8c-0.3-0.1-0.7-1-0.9-2c-0.3-2.2-1.3-3.2-3.6-3.5  c-1-0.1-1.8-0.5-2-0.8c-0.1-0.3-0.5-0.6-0.8-0.6c-0.3,0-0.6-0.3-0.6-0.6c0-0.3-0.3-0.7-0.6-0.8c-0.3-0.1-0.7-1-0.8-2  c-0.5-3-1.1-3.4-6.1-3.4C171.3,227.6,170.9,227.7,170.1,228.6 M278.5,253.5c-1.4,1-1.4,9.3,0.1,10.3c1.5,1,58.5,1,60,0  c1-0.6,1-0.8,1-5.2c0-4.4,0-4.5-1-5.2C337.1,252.5,279.9,252.5,278.5,253.5" id="path0" style=""/>
</svg>