<?xml version="1.0" ?>
<!DOCTYPE svg  PUBLIC '-//W3C//DTD SVG 1.1//EN'  'http://www.w3.org/Graphics/SVG/1.1/DTD/svg11.dtd' [
	<!ENTITY stroke_color "#000000">
	<!ENTITY fill_color "#ffffff">
]>
<svg id="svg" version="1.1" width="48" height="48" viewBox="0 0 400 400" xmlns="http://www.w3.org/2000/svg" xmlns:xlink="http://www.w3.org/1999/xlink" ><g id="svgg"><path id="path0" d="M147.400 92.665 C 145.512 93.089,144.323 93.785,143.490 94.953 L 142.600 96.200 142.400 146.600 C 142.178 202.491,142.407 198.016,139.672 199.872 C 138.653 200.564,136.088 200.610,88.200 200.800 C 39.537 200.993,37.761 201.026,36.680 201.759 C 34.256 203.402,34.400 199.822,34.400 258.600 C 34.400 317.378,34.256 313.798,36.680 315.441 C 38.371 316.587,361.963 316.640,363.712 315.494 C 366.407 313.729,366.200 318.460,366.200 258.600 C 366.200 207.649,366.160 204.503,365.494 203.488 C 363.737 200.806,368.005 201.021,312.144 200.800 L 261.652 200.600 260.390 199.400 C 257.830 196.965,258.000 200.728,257.999 146.520 C 257.999 91.661,258.177 95.414,255.471 93.428 C 254.406 92.648,150.739 91.915,147.400 92.665 M247.462 101.239 C 250.407 103.058,250.200 99.361,250.200 150.200 C 250.200 195.344,250.192 195.814,249.386 197.186 C 247.467 200.452,251.572 200.200,200.200 200.200 L 154.600 200.200 153.143 199.294 C 150.211 197.471,150.400 200.857,150.401 150.140 C 150.403 99.006,150.160 103.110,153.296 101.198 C 154.577 100.417,155.404 100.403,200.353 100.401 L 246.106 100.400 247.462 101.239 M195.308 117.562 C 190.554 119.786,190.484 130.526,195.208 132.899 C 197.432 134.017,203.850 133.894,205.604 132.700 C 209.909 129.770,210.063 120.973,205.864 117.838 C 204.233 116.621,197.688 116.449,195.308 117.562 M169.673 142.812 C 165.611 145.288,165.663 154.720,169.754 157.775 C 171.505 159.083,228.905 159.071,230.671 157.763 C 234.798 154.705,234.902 145.621,230.841 142.908 L 229.482 142.000 200.241 142.001 C 171.595 142.003,170.973 142.019,169.673 142.812 M195.308 167.562 C 190.554 169.786,190.484 180.526,195.208 182.899 C 197.432 184.017,203.850 183.894,205.604 182.700 C 209.909 179.770,210.063 170.973,205.864 167.838 C 204.233 166.621,197.688 166.449,195.308 167.562 M139.078 209.582 C 142.030 211.382,141.800 207.243,141.800 258.600 C 141.800 309.957,142.030 305.814,139.078 307.620 C 137.826 308.386,136.840 308.401,91.507 308.301 L 45.213 308.200 43.707 306.693 L 42.200 305.187 42.200 258.620 L 42.200 212.053 43.400 210.785 C 44.060 210.087,44.960 209.367,45.400 209.184 C 47.370 208.363,137.710 208.748,139.078 209.582 M247.481 209.584 C 250.401 211.364,250.200 207.746,250.200 258.600 C 250.200 309.454,250.401 305.836,247.481 307.616 C 245.437 308.862,155.008 308.841,152.990 307.594 C 150.236 305.892,150.400 309.001,150.400 258.533 C 150.400 207.962,150.216 211.427,153.000 209.595 C 154.873 208.362,245.460 208.352,247.481 209.584 M355.638 209.419 C 358.611 210.957,358.397 207.150,358.397 258.600 C 358.397 310.050,358.611 306.243,355.638 307.781 C 353.550 308.860,263.101 308.702,261.319 307.616 C 258.634 305.979,258.800 309.214,258.800 258.600 C 258.800 207.986,258.634 211.221,261.319 209.584 C 263.101 208.498,353.550 208.340,355.638 209.419 M87.817 225.492 C 84.266 226.394,83.831 227.651,83.600 237.672 C 83.310 250.263,83.463 250.110,70.851 250.400 C 59.208 250.668,58.615 251.065,58.615 258.600 C 58.615 266.135,59.208 266.532,70.851 266.800 C 83.463 267.090,83.310 266.937,83.600 279.528 C 83.865 291.027,84.242 291.635,91.279 291.929 C 99.336 292.266,100.400 290.761,100.400 279.021 C 100.400 267.045,100.330 267.111,113.294 266.805 L 121.989 266.600 123.494 265.093 L 125.000 263.587 125.000 258.600 L 125.000 253.613 123.494 252.107 L 121.989 250.600 113.294 250.400 C 100.418 250.104,100.400 250.087,100.400 237.966 C 100.400 228.820,100.019 227.461,97.050 226.024 C 95.389 225.220,90.088 224.915,87.817 225.492 M170.120 226.009 C 164.928 228.651,165.462 238.299,171.001 241.912 C 172.813 243.094,174.044 244.279,174.980 245.742 C 176.364 247.906,177.859 249.338,180.797 251.315 C 184.813 254.019,184.813 263.181,180.797 265.885 C 177.851 267.868,176.363 269.296,174.960 271.489 C 173.981 273.020,172.846 274.102,171.013 275.251 C 167.601 277.390,166.800 278.978,166.800 283.600 C 166.800 290.218,168.991 292.219,175.921 291.929 C 180.586 291.734,181.279 291.362,183.599 287.802 C 184.817 285.931,185.938 284.813,187.828 283.582 C 189.746 282.332,190.760 281.312,191.821 279.565 C 194.094 275.823,194.952 275.400,200.270 275.400 C 205.258 275.400,206.161 275.761,207.872 278.437 C 209.489 280.966,210.920 282.452,213.053 283.817 C 214.521 284.756,215.705 285.985,216.888 287.799 C 219.289 291.480,220.740 292.144,225.933 291.935 C 232.162 291.685,233.600 290.109,233.600 283.533 C 233.600 278.727,233.043 277.607,229.454 275.200 C 227.487 273.880,226.365 272.756,225.249 270.985 C 224.087 269.139,223.105 268.179,221.090 266.916 C 217.494 264.661,217.000 263.656,217.000 258.600 C 217.000 253.544,217.476 252.587,221.167 250.221 C 223.304 248.851,224.222 247.939,225.378 246.036 C 226.523 244.151,227.465 243.208,229.557 241.855 C 233.542 239.278,235.114 233.112,232.951 228.553 C 230.464 223.313,220.517 223.838,216.888 229.401 C 215.705 231.215,214.521 232.444,213.053 233.383 C 210.920 234.748,209.489 236.234,207.872 238.763 C 206.176 241.415,205.239 241.800,200.471 241.800 C 195.143 241.800,194.160 241.339,191.943 237.804 C 190.743 235.890,189.718 234.850,187.803 233.602 C 185.939 232.388,184.813 231.261,183.599 229.398 C 181.255 225.801,180.600 225.456,175.800 225.291 C 172.337 225.173,171.574 225.269,170.120 226.009 M277.959 251.308 C 275.842 252.722,275.201 254.417,275.201 258.600 C 275.201 262.783,275.842 264.478,277.959 265.892 L 279.318 266.800 308.600 266.800 L 337.882 266.800 339.241 265.892 C 343.171 263.266,343.171 253.934,339.241 251.308 L 337.882 250.400 308.600 250.400 L 279.318 250.400 277.959 251.308 " stroke="none" fill="&stroke_color;" fill-rule="evenodd"></path><path id="path1" d="M145.800 90.374 C 143.537 90.925,142.013 92.007,141.104 93.708 L 140.200 95.400 139.993 146.000 C 139.879 173.830,139.744 196.648,139.693 196.706 C 138.136 198.474,140.521 198.397,87.560 198.399 C 35.029 198.400,36.444 198.348,34.264 200.354 C 31.600 202.807,31.800 198.081,31.800 258.600 C 31.800 319.450,31.582 314.567,34.404 316.942 C 36.703 318.876,30.351 318.809,201.250 318.702 L 363.800 318.600 365.280 317.680 C 366.094 317.174,367.174 316.094,367.680 315.280 L 368.600 313.800 368.600 258.600 L 368.600 203.400 367.680 201.920 C 367.174 201.106,366.094 200.026,365.280 199.520 L 363.800 198.600 313.400 198.400 C 285.680 198.290,262.678 198.043,262.285 197.852 C 260.336 196.901,260.400 198.667,260.398 145.920 C 260.396 111.089,260.265 96.131,259.953 95.005 C 259.377 92.931,257.327 91.028,255.053 90.455 C 253.002 89.939,147.908 89.861,145.800 90.374 M255.471 93.428 C 258.177 95.414,257.999 91.661,257.999 146.520 C 258.000 200.728,257.830 196.965,260.390 199.400 L 261.652 200.600 312.144 200.800 C 368.005 201.021,363.737 200.806,365.494 203.488 C 366.160 204.503,366.200 207.649,366.200 258.600 C 366.200 318.460,366.407 313.729,363.712 315.494 C 361.963 316.640,38.371 316.587,36.680 315.441 C 34.256 313.798,34.400 317.378,34.400 258.600 C 34.400 199.822,34.256 203.402,36.680 201.759 C 37.761 201.026,39.537 200.993,88.200 200.800 C 136.088 200.610,138.653 200.564,139.672 199.872 C 142.407 198.016,142.178 202.491,142.400 146.600 L 142.600 96.200 143.490 94.953 C 144.323 93.785,145.512 93.089,147.400 92.665 C 150.739 91.915,254.406 92.648,255.471 93.428 M153.296 101.198 C 150.160 103.110,150.403 99.006,150.401 150.140 C 150.400 200.857,150.211 197.471,153.143 199.294 L 154.600 200.200 200.200 200.200 C 251.572 200.200,247.467 200.452,249.386 197.186 C 250.192 195.814,250.200 195.344,250.200 150.200 C 250.200 99.361,250.407 103.058,247.462 101.239 L 246.106 100.400 200.353 100.401 C 155.404 100.403,154.577 100.417,153.296 101.198 M205.864 117.838 C 210.063 120.973,209.909 129.770,205.604 132.700 C 203.850 133.894,197.432 134.017,195.208 132.899 C 190.484 130.526,190.554 119.786,195.308 117.562 C 197.688 116.449,204.233 116.621,205.864 117.838 M230.841 142.908 C 234.902 145.621,234.798 154.705,230.671 157.763 C 228.905 159.071,171.505 159.083,169.754 157.775 C 165.663 154.720,165.611 145.288,169.673 142.812 C 170.973 142.019,171.595 142.003,200.241 142.001 L 229.482 142.000 230.841 142.908 M205.864 167.838 C 210.063 170.973,209.909 179.770,205.604 182.700 C 203.850 183.894,197.432 184.017,195.208 182.899 C 190.484 180.526,190.554 169.786,195.308 167.562 C 197.688 166.449,204.233 166.621,205.864 167.838 M45.400 209.184 C 44.960 209.367,44.060 210.087,43.400 210.785 L 42.200 212.053 42.200 258.620 L 42.200 305.187 43.707 306.693 L 45.213 308.200 91.507 308.301 C 143.181 308.414,139.188 308.621,141.078 305.737 C 142.200 304.024,142.200 213.176,141.078 211.463 C 139.196 208.591,143.087 208.800,92.000 208.827 C 66.810 208.840,45.840 209.001,45.400 209.184 M153.000 209.595 C 150.216 211.427,150.400 207.962,150.400 258.533 C 150.400 309.001,150.236 305.892,152.990 307.594 C 155.008 308.841,245.437 308.862,247.481 307.616 C 250.401 305.836,250.200 309.454,250.200 258.600 C 250.200 207.746,250.401 211.364,247.481 209.584 C 245.460 208.352,154.873 208.362,153.000 209.595 M261.319 209.584 C 258.634 211.221,258.800 207.986,258.800 258.600 C 258.800 309.214,258.634 305.979,261.319 307.616 C 263.101 308.702,353.550 308.860,355.638 307.781 C 358.611 306.243,358.397 310.050,358.397 258.600 C 358.397 207.150,358.611 210.957,355.638 209.419 C 353.550 208.340,263.101 208.498,261.319 209.584 M97.050 226.024 C 100.019 227.461,100.400 228.820,100.400 237.966 C 100.400 250.087,100.418 250.104,113.294 250.400 L 121.989 250.600 123.494 252.107 L 125.000 253.613 125.000 258.600 L 125.000 263.587 123.494 265.093 L 121.989 266.600 113.294 266.805 C 100.330 267.111,100.400 267.045,100.400 279.021 C 100.400 290.761,99.336 292.266,91.279 291.929 C 84.242 291.635,83.865 291.027,83.600 279.528 C 83.310 266.937,83.463 267.090,70.851 266.800 C 59.208 266.532,58.615 266.135,58.615 258.600 C 58.615 251.065,59.208 250.668,70.851 250.400 C 83.463 250.110,83.310 250.263,83.600 237.672 C 83.815 228.362,83.962 227.703,86.144 226.273 C 88.210 224.920,94.473 224.777,97.050 226.024 M180.870 226.141 C 181.459 226.533,182.687 227.998,183.599 229.398 C 184.813 231.261,185.939 232.388,187.803 233.602 C 189.718 234.850,190.743 235.890,191.943 237.804 C 194.160 241.339,195.143 241.800,200.471 241.800 C 205.239 241.800,206.176 241.415,207.872 238.763 C 209.489 236.234,210.920 234.748,213.053 233.383 C 214.521 232.444,215.705 231.215,216.888 229.401 C 220.517 223.838,230.464 223.313,232.951 228.553 C 235.114 233.112,233.542 239.278,229.557 241.855 C 227.465 243.208,226.523 244.151,225.378 246.036 C 224.222 247.939,223.304 248.851,221.167 250.221 C 217.476 252.587,217.000 253.544,217.000 258.600 C 217.000 263.656,217.494 264.661,221.090 266.916 C 223.105 268.179,224.087 269.139,225.249 270.985 C 226.365 272.756,227.487 273.880,229.454 275.200 C 233.043 277.607,233.600 278.727,233.600 283.533 C 233.600 290.109,232.162 291.685,225.933 291.935 C 220.740 292.144,219.289 291.480,216.888 287.799 C 215.705 285.985,214.521 284.756,213.053 283.817 C 210.920 282.452,209.489 280.966,207.872 278.437 C 206.161 275.761,205.258 275.400,200.270 275.400 C 194.952 275.400,194.094 275.823,191.821 279.565 C 190.760 281.312,189.746 282.332,187.828 283.582 C 185.938 284.813,184.817 285.931,183.599 287.802 C 181.279 291.362,180.586 291.734,175.921 291.929 C 168.991 292.219,166.800 290.218,166.800 283.600 C 166.800 278.978,167.601 277.390,171.013 275.251 C 172.846 274.102,173.981 273.020,174.960 271.489 C 176.363 269.296,177.851 267.868,180.797 265.885 C 184.813 263.181,184.813 254.019,180.797 251.315 C 177.859 249.338,176.364 247.906,174.980 245.742 C 174.044 244.279,172.813 243.094,171.001 241.912 C 165.462 238.299,164.928 228.651,170.120 226.009 C 172.317 224.892,179.119 224.975,180.870 226.141 M339.241 251.308 C 343.171 253.934,343.171 263.266,339.241 265.892 L 337.882 266.800 308.600 266.800 L 279.318 266.800 277.959 265.892 C 275.842 264.478,275.201 262.783,275.201 258.600 C 275.201 254.417,275.842 252.722,277.959 251.308 L 279.318 250.400 308.600 250.400 L 337.882 250.400 339.241 251.308 " stroke="none" fill="&fill_color;" fill-rule="evenodd"></path></g></svg>